G04 #@! TF.FileFunction,Paste,Top*
%FSLAX46Y46*%
G04 Gerber Fmt 4.6, Leading zero omitted, Abs format (unit mm)*
G04 Created by KiCad (PCBNEW 4.0.5) date Friday, March 17, 2017 'PMt' 05:58:24 PM*
%MOMM*%
%LPD*%
G01*
G04 APERTURE LIST*
%ADD10C,0.100000*%
%ADD11R,0.800000X0.750000*%
%ADD12R,0.300000X0.790000*%
%ADD13R,0.690000X0.780000*%
%ADD14R,0.900000X0.500000*%
%ADD15R,0.500000X0.900000*%
%ADD16R,1.700000X0.900000*%
%ADD17R,1.550000X0.600000*%
%ADD18R,2.500000X3.000000*%
%ADD19R,1.220000X0.650000*%
G04 APERTURE END LIST*
D10*
D11*
X29960000Y-45085000D03*
X28460000Y-45085000D03*
D12*
X28845000Y-41925000D03*
X29345000Y-41925000D03*
X29845000Y-41925000D03*
X30345000Y-41925000D03*
X30845000Y-41925000D03*
X30845000Y-38085000D03*
X30345000Y-38085000D03*
X29845000Y-38085000D03*
X29345000Y-38085000D03*
X28845000Y-38085000D03*
D13*
X30420000Y-39355000D03*
X29270000Y-39355000D03*
X30420000Y-40655000D03*
X29270000Y-40655000D03*
D11*
X32500000Y-43180000D03*
X31000000Y-43180000D03*
X42660000Y-43180000D03*
X41160000Y-43180000D03*
X40120000Y-45085000D03*
X38620000Y-45085000D03*
X52820000Y-43180000D03*
X51320000Y-43180000D03*
X68750000Y-40000000D03*
X70250000Y-40000000D03*
X50280000Y-45085000D03*
X48780000Y-45085000D03*
X62980000Y-43180000D03*
X61480000Y-43180000D03*
X60440000Y-45085000D03*
X58940000Y-45085000D03*
D14*
X25500000Y-44250000D03*
X25500000Y-42750000D03*
D15*
X62750000Y-36000000D03*
X64250000Y-36000000D03*
X62750000Y-34500000D03*
X64250000Y-34500000D03*
X62750000Y-37500000D03*
X64250000Y-37500000D03*
D16*
X76000000Y-34800000D03*
X76000000Y-38200000D03*
D12*
X39005000Y-41925000D03*
X39505000Y-41925000D03*
X40005000Y-41925000D03*
X40505000Y-41925000D03*
X41005000Y-41925000D03*
X41005000Y-38085000D03*
X40505000Y-38085000D03*
X40005000Y-38085000D03*
X39505000Y-38085000D03*
X39005000Y-38085000D03*
D13*
X40580000Y-39355000D03*
X39430000Y-39355000D03*
X40580000Y-40655000D03*
X39430000Y-40655000D03*
D12*
X49165000Y-41920000D03*
X49665000Y-41920000D03*
X50165000Y-41920000D03*
X50665000Y-41920000D03*
X51165000Y-41920000D03*
X51165000Y-38080000D03*
X50665000Y-38080000D03*
X50165000Y-38080000D03*
X49665000Y-38080000D03*
X49165000Y-38080000D03*
D13*
X50740000Y-39350000D03*
X49590000Y-39350000D03*
X50740000Y-40650000D03*
X49590000Y-40650000D03*
D17*
X72200000Y-38405000D03*
X72200000Y-37135000D03*
X72200000Y-35865000D03*
X72200000Y-34595000D03*
X66800000Y-34595000D03*
X66800000Y-35865000D03*
X66800000Y-37135000D03*
X66800000Y-38405000D03*
D12*
X59325000Y-41925000D03*
X59825000Y-41925000D03*
X60325000Y-41925000D03*
X60825000Y-41925000D03*
X61325000Y-41925000D03*
X61325000Y-38085000D03*
X60825000Y-38085000D03*
X60325000Y-38085000D03*
X59825000Y-38085000D03*
X59325000Y-38085000D03*
D13*
X60900000Y-39355000D03*
X59750000Y-39355000D03*
X60900000Y-40655000D03*
X59750000Y-40655000D03*
D18*
X19000000Y-42500000D03*
X19000000Y-34500000D03*
D19*
X27310000Y-35450000D03*
X27310000Y-33550000D03*
X24690000Y-34500000D03*
M02*
