G04 #@! TF.GenerationSoftware,KiCad,Pcbnew,(5.1.2-1)-1*
G04 #@! TF.CreationDate,2019-05-20T11:54:28-05:00*
G04 #@! TF.ProjectId,RPi-pHat-Thermocouple,5250692d-7048-4617-942d-546865726d6f,rev?*
G04 #@! TF.SameCoordinates,Original*
G04 #@! TF.FileFunction,Paste,Top*
G04 #@! TF.FilePolarity,Positive*
%FSLAX46Y46*%
G04 Gerber Fmt 4.6, Leading zero omitted, Abs format (unit mm)*
G04 Created by KiCad (PCBNEW (5.1.2-1)-1) date 2019-05-20 11:54:28*
%MOMM*%
%LPD*%
G04 APERTURE LIST*
%ADD10C,0.001000*%
%ADD11R,6.200000X3.810000*%
%ADD12R,6.200000X3.900000*%
%ADD13R,4.400000X3.300000*%
%ADD14C,0.152400*%
%ADD15C,0.975000*%
%ADD16C,0.875000*%
%ADD17R,0.400000X0.450000*%
%ADD18R,0.800000X0.900000*%
%ADD19R,0.400000X0.650000*%
%ADD20R,0.900000X1.700000*%
%ADD21R,2.999999X2.500000*%
%ADD22R,3.000000X2.500000*%
%ADD23R,0.900000X0.800000*%
%ADD24R,0.300000X0.790000*%
%ADD25R,0.690000X0.780000*%
%ADD26C,0.850000*%
%ADD27R,1.000000X1.500000*%
%ADD28R,1.000000X1.800000*%
%ADD29R,2.200000X1.840000*%
%ADD30C,1.000000*%
%ADD31R,0.750000X0.300000*%
%ADD32R,0.500000X0.600000*%
G04 APERTURE END LIST*
D10*
G36*
X63820500Y-48082000D02*
G01*
X63820500Y-48862000D01*
X64630500Y-48862000D01*
X64630500Y-48082000D01*
X63820500Y-48082000D01*
G37*
X63820500Y-48082000D02*
X63820500Y-48862000D01*
X64630500Y-48862000D01*
X64630500Y-48082000D01*
X63820500Y-48082000D01*
G36*
X63560500Y-48082000D02*
G01*
X63560500Y-48862000D01*
X62750500Y-48862000D01*
X62750500Y-48082000D01*
X63560500Y-48082000D01*
G37*
X63560500Y-48082000D02*
X63560500Y-48862000D01*
X62750500Y-48862000D01*
X62750500Y-48082000D01*
X63560500Y-48082000D01*
G36*
X63560500Y-49182000D02*
G01*
X63560500Y-49962000D01*
X62750500Y-49962000D01*
X62750500Y-49182000D01*
X63560500Y-49182000D01*
G37*
X63560500Y-49182000D02*
X63560500Y-49962000D01*
X62750500Y-49962000D01*
X62750500Y-49182000D01*
X63560500Y-49182000D01*
G36*
X64630500Y-49182000D02*
G01*
X64630500Y-49962000D01*
X63820500Y-49962000D01*
X63820500Y-49182000D01*
X64630500Y-49182000D01*
G37*
X64630500Y-49182000D02*
X64630500Y-49962000D01*
X63820500Y-49962000D01*
X63820500Y-49182000D01*
X64630500Y-49182000D01*
D11*
X72161000Y-33047000D03*
D12*
X72161000Y-45947000D03*
D13*
X63161000Y-38797000D03*
D14*
G36*
X61170642Y-48723174D02*
G01*
X61194303Y-48726684D01*
X61217507Y-48732496D01*
X61240029Y-48740554D01*
X61261653Y-48750782D01*
X61282170Y-48763079D01*
X61301383Y-48777329D01*
X61319107Y-48793393D01*
X61335171Y-48811117D01*
X61349421Y-48830330D01*
X61361718Y-48850847D01*
X61371946Y-48872471D01*
X61380004Y-48894993D01*
X61385816Y-48918197D01*
X61389326Y-48941858D01*
X61390500Y-48965750D01*
X61390500Y-49453250D01*
X61389326Y-49477142D01*
X61385816Y-49500803D01*
X61380004Y-49524007D01*
X61371946Y-49546529D01*
X61361718Y-49568153D01*
X61349421Y-49588670D01*
X61335171Y-49607883D01*
X61319107Y-49625607D01*
X61301383Y-49641671D01*
X61282170Y-49655921D01*
X61261653Y-49668218D01*
X61240029Y-49678446D01*
X61217507Y-49686504D01*
X61194303Y-49692316D01*
X61170642Y-49695826D01*
X61146750Y-49697000D01*
X60234250Y-49697000D01*
X60210358Y-49695826D01*
X60186697Y-49692316D01*
X60163493Y-49686504D01*
X60140971Y-49678446D01*
X60119347Y-49668218D01*
X60098830Y-49655921D01*
X60079617Y-49641671D01*
X60061893Y-49625607D01*
X60045829Y-49607883D01*
X60031579Y-49588670D01*
X60019282Y-49568153D01*
X60009054Y-49546529D01*
X60000996Y-49524007D01*
X59995184Y-49500803D01*
X59991674Y-49477142D01*
X59990500Y-49453250D01*
X59990500Y-48965750D01*
X59991674Y-48941858D01*
X59995184Y-48918197D01*
X60000996Y-48894993D01*
X60009054Y-48872471D01*
X60019282Y-48850847D01*
X60031579Y-48830330D01*
X60045829Y-48811117D01*
X60061893Y-48793393D01*
X60079617Y-48777329D01*
X60098830Y-48763079D01*
X60119347Y-48750782D01*
X60140971Y-48740554D01*
X60163493Y-48732496D01*
X60186697Y-48726684D01*
X60210358Y-48723174D01*
X60234250Y-48722000D01*
X61146750Y-48722000D01*
X61170642Y-48723174D01*
X61170642Y-48723174D01*
G37*
D15*
X60690500Y-49209500D03*
D14*
G36*
X61170642Y-46848174D02*
G01*
X61194303Y-46851684D01*
X61217507Y-46857496D01*
X61240029Y-46865554D01*
X61261653Y-46875782D01*
X61282170Y-46888079D01*
X61301383Y-46902329D01*
X61319107Y-46918393D01*
X61335171Y-46936117D01*
X61349421Y-46955330D01*
X61361718Y-46975847D01*
X61371946Y-46997471D01*
X61380004Y-47019993D01*
X61385816Y-47043197D01*
X61389326Y-47066858D01*
X61390500Y-47090750D01*
X61390500Y-47578250D01*
X61389326Y-47602142D01*
X61385816Y-47625803D01*
X61380004Y-47649007D01*
X61371946Y-47671529D01*
X61361718Y-47693153D01*
X61349421Y-47713670D01*
X61335171Y-47732883D01*
X61319107Y-47750607D01*
X61301383Y-47766671D01*
X61282170Y-47780921D01*
X61261653Y-47793218D01*
X61240029Y-47803446D01*
X61217507Y-47811504D01*
X61194303Y-47817316D01*
X61170642Y-47820826D01*
X61146750Y-47822000D01*
X60234250Y-47822000D01*
X60210358Y-47820826D01*
X60186697Y-47817316D01*
X60163493Y-47811504D01*
X60140971Y-47803446D01*
X60119347Y-47793218D01*
X60098830Y-47780921D01*
X60079617Y-47766671D01*
X60061893Y-47750607D01*
X60045829Y-47732883D01*
X60031579Y-47713670D01*
X60019282Y-47693153D01*
X60009054Y-47671529D01*
X60000996Y-47649007D01*
X59995184Y-47625803D01*
X59991674Y-47602142D01*
X59990500Y-47578250D01*
X59990500Y-47090750D01*
X59991674Y-47066858D01*
X59995184Y-47043197D01*
X60000996Y-47019993D01*
X60009054Y-46997471D01*
X60019282Y-46975847D01*
X60031579Y-46955330D01*
X60045829Y-46936117D01*
X60061893Y-46918393D01*
X60079617Y-46902329D01*
X60098830Y-46888079D01*
X60119347Y-46875782D01*
X60140971Y-46865554D01*
X60163493Y-46857496D01*
X60186697Y-46851684D01*
X60210358Y-46848174D01*
X60234250Y-46847000D01*
X61146750Y-46847000D01*
X61170642Y-46848174D01*
X61170642Y-46848174D01*
G37*
D15*
X60690500Y-47334500D03*
D14*
G36*
X67030191Y-48565053D02*
G01*
X67051426Y-48568203D01*
X67072250Y-48573419D01*
X67092462Y-48580651D01*
X67111868Y-48589830D01*
X67130281Y-48600866D01*
X67147524Y-48613654D01*
X67163430Y-48628070D01*
X67177846Y-48643976D01*
X67190634Y-48661219D01*
X67201670Y-48679632D01*
X67210849Y-48699038D01*
X67218081Y-48719250D01*
X67223297Y-48740074D01*
X67226447Y-48761309D01*
X67227500Y-48782750D01*
X67227500Y-49220250D01*
X67226447Y-49241691D01*
X67223297Y-49262926D01*
X67218081Y-49283750D01*
X67210849Y-49303962D01*
X67201670Y-49323368D01*
X67190634Y-49341781D01*
X67177846Y-49359024D01*
X67163430Y-49374930D01*
X67147524Y-49389346D01*
X67130281Y-49402134D01*
X67111868Y-49413170D01*
X67092462Y-49422349D01*
X67072250Y-49429581D01*
X67051426Y-49434797D01*
X67030191Y-49437947D01*
X67008750Y-49439000D01*
X66496250Y-49439000D01*
X66474809Y-49437947D01*
X66453574Y-49434797D01*
X66432750Y-49429581D01*
X66412538Y-49422349D01*
X66393132Y-49413170D01*
X66374719Y-49402134D01*
X66357476Y-49389346D01*
X66341570Y-49374930D01*
X66327154Y-49359024D01*
X66314366Y-49341781D01*
X66303330Y-49323368D01*
X66294151Y-49303962D01*
X66286919Y-49283750D01*
X66281703Y-49262926D01*
X66278553Y-49241691D01*
X66277500Y-49220250D01*
X66277500Y-48782750D01*
X66278553Y-48761309D01*
X66281703Y-48740074D01*
X66286919Y-48719250D01*
X66294151Y-48699038D01*
X66303330Y-48679632D01*
X66314366Y-48661219D01*
X66327154Y-48643976D01*
X66341570Y-48628070D01*
X66357476Y-48613654D01*
X66374719Y-48600866D01*
X66393132Y-48589830D01*
X66412538Y-48580651D01*
X66432750Y-48573419D01*
X66453574Y-48568203D01*
X66474809Y-48565053D01*
X66496250Y-48564000D01*
X67008750Y-48564000D01*
X67030191Y-48565053D01*
X67030191Y-48565053D01*
G37*
D16*
X66752500Y-49001500D03*
D14*
G36*
X67030191Y-46990053D02*
G01*
X67051426Y-46993203D01*
X67072250Y-46998419D01*
X67092462Y-47005651D01*
X67111868Y-47014830D01*
X67130281Y-47025866D01*
X67147524Y-47038654D01*
X67163430Y-47053070D01*
X67177846Y-47068976D01*
X67190634Y-47086219D01*
X67201670Y-47104632D01*
X67210849Y-47124038D01*
X67218081Y-47144250D01*
X67223297Y-47165074D01*
X67226447Y-47186309D01*
X67227500Y-47207750D01*
X67227500Y-47645250D01*
X67226447Y-47666691D01*
X67223297Y-47687926D01*
X67218081Y-47708750D01*
X67210849Y-47728962D01*
X67201670Y-47748368D01*
X67190634Y-47766781D01*
X67177846Y-47784024D01*
X67163430Y-47799930D01*
X67147524Y-47814346D01*
X67130281Y-47827134D01*
X67111868Y-47838170D01*
X67092462Y-47847349D01*
X67072250Y-47854581D01*
X67051426Y-47859797D01*
X67030191Y-47862947D01*
X67008750Y-47864000D01*
X66496250Y-47864000D01*
X66474809Y-47862947D01*
X66453574Y-47859797D01*
X66432750Y-47854581D01*
X66412538Y-47847349D01*
X66393132Y-47838170D01*
X66374719Y-47827134D01*
X66357476Y-47814346D01*
X66341570Y-47799930D01*
X66327154Y-47784024D01*
X66314366Y-47766781D01*
X66303330Y-47748368D01*
X66294151Y-47728962D01*
X66286919Y-47708750D01*
X66281703Y-47687926D01*
X66278553Y-47666691D01*
X66277500Y-47645250D01*
X66277500Y-47207750D01*
X66278553Y-47186309D01*
X66281703Y-47165074D01*
X66286919Y-47144250D01*
X66294151Y-47124038D01*
X66303330Y-47104632D01*
X66314366Y-47086219D01*
X66327154Y-47068976D01*
X66341570Y-47053070D01*
X66357476Y-47038654D01*
X66374719Y-47025866D01*
X66393132Y-47014830D01*
X66412538Y-47005651D01*
X66432750Y-46998419D01*
X66453574Y-46993203D01*
X66474809Y-46990053D01*
X66496250Y-46989000D01*
X67008750Y-46989000D01*
X67030191Y-46990053D01*
X67030191Y-46990053D01*
G37*
D16*
X66752500Y-47426500D03*
D14*
G36*
X64645642Y-51823174D02*
G01*
X64669303Y-51826684D01*
X64692507Y-51832496D01*
X64715029Y-51840554D01*
X64736653Y-51850782D01*
X64757170Y-51863079D01*
X64776383Y-51877329D01*
X64794107Y-51893393D01*
X64810171Y-51911117D01*
X64824421Y-51930330D01*
X64836718Y-51950847D01*
X64846946Y-51972471D01*
X64855004Y-51994993D01*
X64860816Y-52018197D01*
X64864326Y-52041858D01*
X64865500Y-52065750D01*
X64865500Y-52978250D01*
X64864326Y-53002142D01*
X64860816Y-53025803D01*
X64855004Y-53049007D01*
X64846946Y-53071529D01*
X64836718Y-53093153D01*
X64824421Y-53113670D01*
X64810171Y-53132883D01*
X64794107Y-53150607D01*
X64776383Y-53166671D01*
X64757170Y-53180921D01*
X64736653Y-53193218D01*
X64715029Y-53203446D01*
X64692507Y-53211504D01*
X64669303Y-53217316D01*
X64645642Y-53220826D01*
X64621750Y-53222000D01*
X64134250Y-53222000D01*
X64110358Y-53220826D01*
X64086697Y-53217316D01*
X64063493Y-53211504D01*
X64040971Y-53203446D01*
X64019347Y-53193218D01*
X63998830Y-53180921D01*
X63979617Y-53166671D01*
X63961893Y-53150607D01*
X63945829Y-53132883D01*
X63931579Y-53113670D01*
X63919282Y-53093153D01*
X63909054Y-53071529D01*
X63900996Y-53049007D01*
X63895184Y-53025803D01*
X63891674Y-53002142D01*
X63890500Y-52978250D01*
X63890500Y-52065750D01*
X63891674Y-52041858D01*
X63895184Y-52018197D01*
X63900996Y-51994993D01*
X63909054Y-51972471D01*
X63919282Y-51950847D01*
X63931579Y-51930330D01*
X63945829Y-51911117D01*
X63961893Y-51893393D01*
X63979617Y-51877329D01*
X63998830Y-51863079D01*
X64019347Y-51850782D01*
X64040971Y-51840554D01*
X64063493Y-51832496D01*
X64086697Y-51826684D01*
X64110358Y-51823174D01*
X64134250Y-51822000D01*
X64621750Y-51822000D01*
X64645642Y-51823174D01*
X64645642Y-51823174D01*
G37*
D15*
X64378000Y-52522000D03*
D14*
G36*
X62770642Y-51823174D02*
G01*
X62794303Y-51826684D01*
X62817507Y-51832496D01*
X62840029Y-51840554D01*
X62861653Y-51850782D01*
X62882170Y-51863079D01*
X62901383Y-51877329D01*
X62919107Y-51893393D01*
X62935171Y-51911117D01*
X62949421Y-51930330D01*
X62961718Y-51950847D01*
X62971946Y-51972471D01*
X62980004Y-51994993D01*
X62985816Y-52018197D01*
X62989326Y-52041858D01*
X62990500Y-52065750D01*
X62990500Y-52978250D01*
X62989326Y-53002142D01*
X62985816Y-53025803D01*
X62980004Y-53049007D01*
X62971946Y-53071529D01*
X62961718Y-53093153D01*
X62949421Y-53113670D01*
X62935171Y-53132883D01*
X62919107Y-53150607D01*
X62901383Y-53166671D01*
X62882170Y-53180921D01*
X62861653Y-53193218D01*
X62840029Y-53203446D01*
X62817507Y-53211504D01*
X62794303Y-53217316D01*
X62770642Y-53220826D01*
X62746750Y-53222000D01*
X62259250Y-53222000D01*
X62235358Y-53220826D01*
X62211697Y-53217316D01*
X62188493Y-53211504D01*
X62165971Y-53203446D01*
X62144347Y-53193218D01*
X62123830Y-53180921D01*
X62104617Y-53166671D01*
X62086893Y-53150607D01*
X62070829Y-53132883D01*
X62056579Y-53113670D01*
X62044282Y-53093153D01*
X62034054Y-53071529D01*
X62025996Y-53049007D01*
X62020184Y-53025803D01*
X62016674Y-53002142D01*
X62015500Y-52978250D01*
X62015500Y-52065750D01*
X62016674Y-52041858D01*
X62020184Y-52018197D01*
X62025996Y-51994993D01*
X62034054Y-51972471D01*
X62044282Y-51950847D01*
X62056579Y-51930330D01*
X62070829Y-51911117D01*
X62086893Y-51893393D01*
X62104617Y-51877329D01*
X62123830Y-51863079D01*
X62144347Y-51850782D01*
X62165971Y-51840554D01*
X62188493Y-51832496D01*
X62211697Y-51826684D01*
X62235358Y-51823174D01*
X62259250Y-51822000D01*
X62746750Y-51822000D01*
X62770642Y-51823174D01*
X62770642Y-51823174D01*
G37*
D15*
X62503000Y-52522000D03*
D17*
X64890500Y-50497000D03*
X64090500Y-50497000D03*
X63290500Y-50497000D03*
X62490500Y-50497000D03*
X62490500Y-47547000D03*
X63290500Y-47547000D03*
X64090500Y-47547000D03*
X64890500Y-47547000D03*
D14*
G36*
X66764191Y-45048053D02*
G01*
X66785426Y-45051203D01*
X66806250Y-45056419D01*
X66826462Y-45063651D01*
X66845868Y-45072830D01*
X66864281Y-45083866D01*
X66881524Y-45096654D01*
X66897430Y-45111070D01*
X66911846Y-45126976D01*
X66924634Y-45144219D01*
X66935670Y-45162632D01*
X66944849Y-45182038D01*
X66952081Y-45202250D01*
X66957297Y-45223074D01*
X66960447Y-45244309D01*
X66961500Y-45265750D01*
X66961500Y-45778250D01*
X66960447Y-45799691D01*
X66957297Y-45820926D01*
X66952081Y-45841750D01*
X66944849Y-45861962D01*
X66935670Y-45881368D01*
X66924634Y-45899781D01*
X66911846Y-45917024D01*
X66897430Y-45932930D01*
X66881524Y-45947346D01*
X66864281Y-45960134D01*
X66845868Y-45971170D01*
X66826462Y-45980349D01*
X66806250Y-45987581D01*
X66785426Y-45992797D01*
X66764191Y-45995947D01*
X66742750Y-45997000D01*
X66305250Y-45997000D01*
X66283809Y-45995947D01*
X66262574Y-45992797D01*
X66241750Y-45987581D01*
X66221538Y-45980349D01*
X66202132Y-45971170D01*
X66183719Y-45960134D01*
X66166476Y-45947346D01*
X66150570Y-45932930D01*
X66136154Y-45917024D01*
X66123366Y-45899781D01*
X66112330Y-45881368D01*
X66103151Y-45861962D01*
X66095919Y-45841750D01*
X66090703Y-45820926D01*
X66087553Y-45799691D01*
X66086500Y-45778250D01*
X66086500Y-45265750D01*
X66087553Y-45244309D01*
X66090703Y-45223074D01*
X66095919Y-45202250D01*
X66103151Y-45182038D01*
X66112330Y-45162632D01*
X66123366Y-45144219D01*
X66136154Y-45126976D01*
X66150570Y-45111070D01*
X66166476Y-45096654D01*
X66183719Y-45083866D01*
X66202132Y-45072830D01*
X66221538Y-45063651D01*
X66241750Y-45056419D01*
X66262574Y-45051203D01*
X66283809Y-45048053D01*
X66305250Y-45047000D01*
X66742750Y-45047000D01*
X66764191Y-45048053D01*
X66764191Y-45048053D01*
G37*
D16*
X66524000Y-45522000D03*
D14*
G36*
X65189191Y-45048053D02*
G01*
X65210426Y-45051203D01*
X65231250Y-45056419D01*
X65251462Y-45063651D01*
X65270868Y-45072830D01*
X65289281Y-45083866D01*
X65306524Y-45096654D01*
X65322430Y-45111070D01*
X65336846Y-45126976D01*
X65349634Y-45144219D01*
X65360670Y-45162632D01*
X65369849Y-45182038D01*
X65377081Y-45202250D01*
X65382297Y-45223074D01*
X65385447Y-45244309D01*
X65386500Y-45265750D01*
X65386500Y-45778250D01*
X65385447Y-45799691D01*
X65382297Y-45820926D01*
X65377081Y-45841750D01*
X65369849Y-45861962D01*
X65360670Y-45881368D01*
X65349634Y-45899781D01*
X65336846Y-45917024D01*
X65322430Y-45932930D01*
X65306524Y-45947346D01*
X65289281Y-45960134D01*
X65270868Y-45971170D01*
X65251462Y-45980349D01*
X65231250Y-45987581D01*
X65210426Y-45992797D01*
X65189191Y-45995947D01*
X65167750Y-45997000D01*
X64730250Y-45997000D01*
X64708809Y-45995947D01*
X64687574Y-45992797D01*
X64666750Y-45987581D01*
X64646538Y-45980349D01*
X64627132Y-45971170D01*
X64608719Y-45960134D01*
X64591476Y-45947346D01*
X64575570Y-45932930D01*
X64561154Y-45917024D01*
X64548366Y-45899781D01*
X64537330Y-45881368D01*
X64528151Y-45861962D01*
X64520919Y-45841750D01*
X64515703Y-45820926D01*
X64512553Y-45799691D01*
X64511500Y-45778250D01*
X64511500Y-45265750D01*
X64512553Y-45244309D01*
X64515703Y-45223074D01*
X64520919Y-45202250D01*
X64528151Y-45182038D01*
X64537330Y-45162632D01*
X64548366Y-45144219D01*
X64561154Y-45126976D01*
X64575570Y-45111070D01*
X64591476Y-45096654D01*
X64608719Y-45083866D01*
X64627132Y-45072830D01*
X64646538Y-45063651D01*
X64666750Y-45056419D01*
X64687574Y-45051203D01*
X64708809Y-45048053D01*
X64730250Y-45047000D01*
X65167750Y-45047000D01*
X65189191Y-45048053D01*
X65189191Y-45048053D01*
G37*
D16*
X64949000Y-45522000D03*
D14*
G36*
X61893191Y-45048053D02*
G01*
X61914426Y-45051203D01*
X61935250Y-45056419D01*
X61955462Y-45063651D01*
X61974868Y-45072830D01*
X61993281Y-45083866D01*
X62010524Y-45096654D01*
X62026430Y-45111070D01*
X62040846Y-45126976D01*
X62053634Y-45144219D01*
X62064670Y-45162632D01*
X62073849Y-45182038D01*
X62081081Y-45202250D01*
X62086297Y-45223074D01*
X62089447Y-45244309D01*
X62090500Y-45265750D01*
X62090500Y-45778250D01*
X62089447Y-45799691D01*
X62086297Y-45820926D01*
X62081081Y-45841750D01*
X62073849Y-45861962D01*
X62064670Y-45881368D01*
X62053634Y-45899781D01*
X62040846Y-45917024D01*
X62026430Y-45932930D01*
X62010524Y-45947346D01*
X61993281Y-45960134D01*
X61974868Y-45971170D01*
X61955462Y-45980349D01*
X61935250Y-45987581D01*
X61914426Y-45992797D01*
X61893191Y-45995947D01*
X61871750Y-45997000D01*
X61434250Y-45997000D01*
X61412809Y-45995947D01*
X61391574Y-45992797D01*
X61370750Y-45987581D01*
X61350538Y-45980349D01*
X61331132Y-45971170D01*
X61312719Y-45960134D01*
X61295476Y-45947346D01*
X61279570Y-45932930D01*
X61265154Y-45917024D01*
X61252366Y-45899781D01*
X61241330Y-45881368D01*
X61232151Y-45861962D01*
X61224919Y-45841750D01*
X61219703Y-45820926D01*
X61216553Y-45799691D01*
X61215500Y-45778250D01*
X61215500Y-45265750D01*
X61216553Y-45244309D01*
X61219703Y-45223074D01*
X61224919Y-45202250D01*
X61232151Y-45182038D01*
X61241330Y-45162632D01*
X61252366Y-45144219D01*
X61265154Y-45126976D01*
X61279570Y-45111070D01*
X61295476Y-45096654D01*
X61312719Y-45083866D01*
X61331132Y-45072830D01*
X61350538Y-45063651D01*
X61370750Y-45056419D01*
X61391574Y-45051203D01*
X61412809Y-45048053D01*
X61434250Y-45047000D01*
X61871750Y-45047000D01*
X61893191Y-45048053D01*
X61893191Y-45048053D01*
G37*
D16*
X61653000Y-45522000D03*
D14*
G36*
X63468191Y-45048053D02*
G01*
X63489426Y-45051203D01*
X63510250Y-45056419D01*
X63530462Y-45063651D01*
X63549868Y-45072830D01*
X63568281Y-45083866D01*
X63585524Y-45096654D01*
X63601430Y-45111070D01*
X63615846Y-45126976D01*
X63628634Y-45144219D01*
X63639670Y-45162632D01*
X63648849Y-45182038D01*
X63656081Y-45202250D01*
X63661297Y-45223074D01*
X63664447Y-45244309D01*
X63665500Y-45265750D01*
X63665500Y-45778250D01*
X63664447Y-45799691D01*
X63661297Y-45820926D01*
X63656081Y-45841750D01*
X63648849Y-45861962D01*
X63639670Y-45881368D01*
X63628634Y-45899781D01*
X63615846Y-45917024D01*
X63601430Y-45932930D01*
X63585524Y-45947346D01*
X63568281Y-45960134D01*
X63549868Y-45971170D01*
X63530462Y-45980349D01*
X63510250Y-45987581D01*
X63489426Y-45992797D01*
X63468191Y-45995947D01*
X63446750Y-45997000D01*
X63009250Y-45997000D01*
X62987809Y-45995947D01*
X62966574Y-45992797D01*
X62945750Y-45987581D01*
X62925538Y-45980349D01*
X62906132Y-45971170D01*
X62887719Y-45960134D01*
X62870476Y-45947346D01*
X62854570Y-45932930D01*
X62840154Y-45917024D01*
X62827366Y-45899781D01*
X62816330Y-45881368D01*
X62807151Y-45861962D01*
X62799919Y-45841750D01*
X62794703Y-45820926D01*
X62791553Y-45799691D01*
X62790500Y-45778250D01*
X62790500Y-45265750D01*
X62791553Y-45244309D01*
X62794703Y-45223074D01*
X62799919Y-45202250D01*
X62807151Y-45182038D01*
X62816330Y-45162632D01*
X62827366Y-45144219D01*
X62840154Y-45126976D01*
X62854570Y-45111070D01*
X62870476Y-45096654D01*
X62887719Y-45083866D01*
X62906132Y-45072830D01*
X62925538Y-45063651D01*
X62945750Y-45056419D01*
X62966574Y-45051203D01*
X62987809Y-45048053D01*
X63009250Y-45047000D01*
X63446750Y-45047000D01*
X63468191Y-45048053D01*
X63468191Y-45048053D01*
G37*
D16*
X63228000Y-45522000D03*
D14*
G36*
X56348191Y-50389053D02*
G01*
X56369426Y-50392203D01*
X56390250Y-50397419D01*
X56410462Y-50404651D01*
X56429868Y-50413830D01*
X56448281Y-50424866D01*
X56465524Y-50437654D01*
X56481430Y-50452070D01*
X56495846Y-50467976D01*
X56508634Y-50485219D01*
X56519670Y-50503632D01*
X56528849Y-50523038D01*
X56536081Y-50543250D01*
X56541297Y-50564074D01*
X56544447Y-50585309D01*
X56545500Y-50606750D01*
X56545500Y-51044250D01*
X56544447Y-51065691D01*
X56541297Y-51086926D01*
X56536081Y-51107750D01*
X56528849Y-51127962D01*
X56519670Y-51147368D01*
X56508634Y-51165781D01*
X56495846Y-51183024D01*
X56481430Y-51198930D01*
X56465524Y-51213346D01*
X56448281Y-51226134D01*
X56429868Y-51237170D01*
X56410462Y-51246349D01*
X56390250Y-51253581D01*
X56369426Y-51258797D01*
X56348191Y-51261947D01*
X56326750Y-51263000D01*
X55814250Y-51263000D01*
X55792809Y-51261947D01*
X55771574Y-51258797D01*
X55750750Y-51253581D01*
X55730538Y-51246349D01*
X55711132Y-51237170D01*
X55692719Y-51226134D01*
X55675476Y-51213346D01*
X55659570Y-51198930D01*
X55645154Y-51183024D01*
X55632366Y-51165781D01*
X55621330Y-51147368D01*
X55612151Y-51127962D01*
X55604919Y-51107750D01*
X55599703Y-51086926D01*
X55596553Y-51065691D01*
X55595500Y-51044250D01*
X55595500Y-50606750D01*
X55596553Y-50585309D01*
X55599703Y-50564074D01*
X55604919Y-50543250D01*
X55612151Y-50523038D01*
X55621330Y-50503632D01*
X55632366Y-50485219D01*
X55645154Y-50467976D01*
X55659570Y-50452070D01*
X55675476Y-50437654D01*
X55692719Y-50424866D01*
X55711132Y-50413830D01*
X55730538Y-50404651D01*
X55750750Y-50397419D01*
X55771574Y-50392203D01*
X55792809Y-50389053D01*
X55814250Y-50388000D01*
X56326750Y-50388000D01*
X56348191Y-50389053D01*
X56348191Y-50389053D01*
G37*
D16*
X56070500Y-50825500D03*
D14*
G36*
X56348191Y-48814053D02*
G01*
X56369426Y-48817203D01*
X56390250Y-48822419D01*
X56410462Y-48829651D01*
X56429868Y-48838830D01*
X56448281Y-48849866D01*
X56465524Y-48862654D01*
X56481430Y-48877070D01*
X56495846Y-48892976D01*
X56508634Y-48910219D01*
X56519670Y-48928632D01*
X56528849Y-48948038D01*
X56536081Y-48968250D01*
X56541297Y-48989074D01*
X56544447Y-49010309D01*
X56545500Y-49031750D01*
X56545500Y-49469250D01*
X56544447Y-49490691D01*
X56541297Y-49511926D01*
X56536081Y-49532750D01*
X56528849Y-49552962D01*
X56519670Y-49572368D01*
X56508634Y-49590781D01*
X56495846Y-49608024D01*
X56481430Y-49623930D01*
X56465524Y-49638346D01*
X56448281Y-49651134D01*
X56429868Y-49662170D01*
X56410462Y-49671349D01*
X56390250Y-49678581D01*
X56369426Y-49683797D01*
X56348191Y-49686947D01*
X56326750Y-49688000D01*
X55814250Y-49688000D01*
X55792809Y-49686947D01*
X55771574Y-49683797D01*
X55750750Y-49678581D01*
X55730538Y-49671349D01*
X55711132Y-49662170D01*
X55692719Y-49651134D01*
X55675476Y-49638346D01*
X55659570Y-49623930D01*
X55645154Y-49608024D01*
X55632366Y-49590781D01*
X55621330Y-49572368D01*
X55612151Y-49552962D01*
X55604919Y-49532750D01*
X55599703Y-49511926D01*
X55596553Y-49490691D01*
X55595500Y-49469250D01*
X55595500Y-49031750D01*
X55596553Y-49010309D01*
X55599703Y-48989074D01*
X55604919Y-48968250D01*
X55612151Y-48948038D01*
X55621330Y-48928632D01*
X55632366Y-48910219D01*
X55645154Y-48892976D01*
X55659570Y-48877070D01*
X55675476Y-48862654D01*
X55692719Y-48849866D01*
X55711132Y-48838830D01*
X55730538Y-48829651D01*
X55750750Y-48822419D01*
X55771574Y-48817203D01*
X55792809Y-48814053D01*
X55814250Y-48813000D01*
X56326750Y-48813000D01*
X56348191Y-48814053D01*
X56348191Y-48814053D01*
G37*
D16*
X56070500Y-49250500D03*
D14*
G36*
X54824191Y-50389053D02*
G01*
X54845426Y-50392203D01*
X54866250Y-50397419D01*
X54886462Y-50404651D01*
X54905868Y-50413830D01*
X54924281Y-50424866D01*
X54941524Y-50437654D01*
X54957430Y-50452070D01*
X54971846Y-50467976D01*
X54984634Y-50485219D01*
X54995670Y-50503632D01*
X55004849Y-50523038D01*
X55012081Y-50543250D01*
X55017297Y-50564074D01*
X55020447Y-50585309D01*
X55021500Y-50606750D01*
X55021500Y-51044250D01*
X55020447Y-51065691D01*
X55017297Y-51086926D01*
X55012081Y-51107750D01*
X55004849Y-51127962D01*
X54995670Y-51147368D01*
X54984634Y-51165781D01*
X54971846Y-51183024D01*
X54957430Y-51198930D01*
X54941524Y-51213346D01*
X54924281Y-51226134D01*
X54905868Y-51237170D01*
X54886462Y-51246349D01*
X54866250Y-51253581D01*
X54845426Y-51258797D01*
X54824191Y-51261947D01*
X54802750Y-51263000D01*
X54290250Y-51263000D01*
X54268809Y-51261947D01*
X54247574Y-51258797D01*
X54226750Y-51253581D01*
X54206538Y-51246349D01*
X54187132Y-51237170D01*
X54168719Y-51226134D01*
X54151476Y-51213346D01*
X54135570Y-51198930D01*
X54121154Y-51183024D01*
X54108366Y-51165781D01*
X54097330Y-51147368D01*
X54088151Y-51127962D01*
X54080919Y-51107750D01*
X54075703Y-51086926D01*
X54072553Y-51065691D01*
X54071500Y-51044250D01*
X54071500Y-50606750D01*
X54072553Y-50585309D01*
X54075703Y-50564074D01*
X54080919Y-50543250D01*
X54088151Y-50523038D01*
X54097330Y-50503632D01*
X54108366Y-50485219D01*
X54121154Y-50467976D01*
X54135570Y-50452070D01*
X54151476Y-50437654D01*
X54168719Y-50424866D01*
X54187132Y-50413830D01*
X54206538Y-50404651D01*
X54226750Y-50397419D01*
X54247574Y-50392203D01*
X54268809Y-50389053D01*
X54290250Y-50388000D01*
X54802750Y-50388000D01*
X54824191Y-50389053D01*
X54824191Y-50389053D01*
G37*
D16*
X54546500Y-50825500D03*
D14*
G36*
X54824191Y-48814053D02*
G01*
X54845426Y-48817203D01*
X54866250Y-48822419D01*
X54886462Y-48829651D01*
X54905868Y-48838830D01*
X54924281Y-48849866D01*
X54941524Y-48862654D01*
X54957430Y-48877070D01*
X54971846Y-48892976D01*
X54984634Y-48910219D01*
X54995670Y-48928632D01*
X55004849Y-48948038D01*
X55012081Y-48968250D01*
X55017297Y-48989074D01*
X55020447Y-49010309D01*
X55021500Y-49031750D01*
X55021500Y-49469250D01*
X55020447Y-49490691D01*
X55017297Y-49511926D01*
X55012081Y-49532750D01*
X55004849Y-49552962D01*
X54995670Y-49572368D01*
X54984634Y-49590781D01*
X54971846Y-49608024D01*
X54957430Y-49623930D01*
X54941524Y-49638346D01*
X54924281Y-49651134D01*
X54905868Y-49662170D01*
X54886462Y-49671349D01*
X54866250Y-49678581D01*
X54845426Y-49683797D01*
X54824191Y-49686947D01*
X54802750Y-49688000D01*
X54290250Y-49688000D01*
X54268809Y-49686947D01*
X54247574Y-49683797D01*
X54226750Y-49678581D01*
X54206538Y-49671349D01*
X54187132Y-49662170D01*
X54168719Y-49651134D01*
X54151476Y-49638346D01*
X54135570Y-49623930D01*
X54121154Y-49608024D01*
X54108366Y-49590781D01*
X54097330Y-49572368D01*
X54088151Y-49552962D01*
X54080919Y-49532750D01*
X54075703Y-49511926D01*
X54072553Y-49490691D01*
X54071500Y-49469250D01*
X54071500Y-49031750D01*
X54072553Y-49010309D01*
X54075703Y-48989074D01*
X54080919Y-48968250D01*
X54088151Y-48948038D01*
X54097330Y-48928632D01*
X54108366Y-48910219D01*
X54121154Y-48892976D01*
X54135570Y-48877070D01*
X54151476Y-48862654D01*
X54168719Y-48849866D01*
X54187132Y-48838830D01*
X54206538Y-48829651D01*
X54226750Y-48822419D01*
X54247574Y-48817203D01*
X54268809Y-48814053D01*
X54290250Y-48813000D01*
X54802750Y-48813000D01*
X54824191Y-48814053D01*
X54824191Y-48814053D01*
G37*
D16*
X54546500Y-49250500D03*
D18*
X57594500Y-41894000D03*
X56644500Y-39894000D03*
X58544500Y-39894000D03*
D19*
X55958500Y-47940000D03*
X54658500Y-47940000D03*
X55308500Y-46040000D03*
X55308500Y-47940000D03*
X54658500Y-46040000D03*
X55958500Y-46040000D03*
D20*
X49261500Y-32131000D03*
X45861500Y-32131000D03*
D14*
G36*
X56983691Y-34705053D02*
G01*
X57004926Y-34708203D01*
X57025750Y-34713419D01*
X57045962Y-34720651D01*
X57065368Y-34729830D01*
X57083781Y-34740866D01*
X57101024Y-34753654D01*
X57116930Y-34768070D01*
X57131346Y-34783976D01*
X57144134Y-34801219D01*
X57155170Y-34819632D01*
X57164349Y-34839038D01*
X57171581Y-34859250D01*
X57176797Y-34880074D01*
X57179947Y-34901309D01*
X57181000Y-34922750D01*
X57181000Y-35435250D01*
X57179947Y-35456691D01*
X57176797Y-35477926D01*
X57171581Y-35498750D01*
X57164349Y-35518962D01*
X57155170Y-35538368D01*
X57144134Y-35556781D01*
X57131346Y-35574024D01*
X57116930Y-35589930D01*
X57101024Y-35604346D01*
X57083781Y-35617134D01*
X57065368Y-35628170D01*
X57045962Y-35637349D01*
X57025750Y-35644581D01*
X57004926Y-35649797D01*
X56983691Y-35652947D01*
X56962250Y-35654000D01*
X56524750Y-35654000D01*
X56503309Y-35652947D01*
X56482074Y-35649797D01*
X56461250Y-35644581D01*
X56441038Y-35637349D01*
X56421632Y-35628170D01*
X56403219Y-35617134D01*
X56385976Y-35604346D01*
X56370070Y-35589930D01*
X56355654Y-35574024D01*
X56342866Y-35556781D01*
X56331830Y-35538368D01*
X56322651Y-35518962D01*
X56315419Y-35498750D01*
X56310203Y-35477926D01*
X56307053Y-35456691D01*
X56306000Y-35435250D01*
X56306000Y-34922750D01*
X56307053Y-34901309D01*
X56310203Y-34880074D01*
X56315419Y-34859250D01*
X56322651Y-34839038D01*
X56331830Y-34819632D01*
X56342866Y-34801219D01*
X56355654Y-34783976D01*
X56370070Y-34768070D01*
X56385976Y-34753654D01*
X56403219Y-34740866D01*
X56421632Y-34729830D01*
X56441038Y-34720651D01*
X56461250Y-34713419D01*
X56482074Y-34708203D01*
X56503309Y-34705053D01*
X56524750Y-34704000D01*
X56962250Y-34704000D01*
X56983691Y-34705053D01*
X56983691Y-34705053D01*
G37*
D16*
X56743500Y-35179000D03*
D14*
G36*
X58558691Y-34705053D02*
G01*
X58579926Y-34708203D01*
X58600750Y-34713419D01*
X58620962Y-34720651D01*
X58640368Y-34729830D01*
X58658781Y-34740866D01*
X58676024Y-34753654D01*
X58691930Y-34768070D01*
X58706346Y-34783976D01*
X58719134Y-34801219D01*
X58730170Y-34819632D01*
X58739349Y-34839038D01*
X58746581Y-34859250D01*
X58751797Y-34880074D01*
X58754947Y-34901309D01*
X58756000Y-34922750D01*
X58756000Y-35435250D01*
X58754947Y-35456691D01*
X58751797Y-35477926D01*
X58746581Y-35498750D01*
X58739349Y-35518962D01*
X58730170Y-35538368D01*
X58719134Y-35556781D01*
X58706346Y-35574024D01*
X58691930Y-35589930D01*
X58676024Y-35604346D01*
X58658781Y-35617134D01*
X58640368Y-35628170D01*
X58620962Y-35637349D01*
X58600750Y-35644581D01*
X58579926Y-35649797D01*
X58558691Y-35652947D01*
X58537250Y-35654000D01*
X58099750Y-35654000D01*
X58078309Y-35652947D01*
X58057074Y-35649797D01*
X58036250Y-35644581D01*
X58016038Y-35637349D01*
X57996632Y-35628170D01*
X57978219Y-35617134D01*
X57960976Y-35604346D01*
X57945070Y-35589930D01*
X57930654Y-35574024D01*
X57917866Y-35556781D01*
X57906830Y-35538368D01*
X57897651Y-35518962D01*
X57890419Y-35498750D01*
X57885203Y-35477926D01*
X57882053Y-35456691D01*
X57881000Y-35435250D01*
X57881000Y-34922750D01*
X57882053Y-34901309D01*
X57885203Y-34880074D01*
X57890419Y-34859250D01*
X57897651Y-34839038D01*
X57906830Y-34819632D01*
X57917866Y-34801219D01*
X57930654Y-34783976D01*
X57945070Y-34768070D01*
X57960976Y-34753654D01*
X57978219Y-34740866D01*
X57996632Y-34729830D01*
X58016038Y-34720651D01*
X58036250Y-34713419D01*
X58057074Y-34708203D01*
X58078309Y-34705053D01*
X58099750Y-34704000D01*
X58537250Y-34704000D01*
X58558691Y-34705053D01*
X58558691Y-34705053D01*
G37*
D16*
X58318500Y-35179000D03*
D18*
X30160000Y-46244000D03*
X28260000Y-46244000D03*
X29210000Y-48244000D03*
D21*
X15000000Y-36250000D03*
D22*
X23000000Y-36250000D03*
D14*
G36*
X31329691Y-42706053D02*
G01*
X31350926Y-42709203D01*
X31371750Y-42714419D01*
X31391962Y-42721651D01*
X31411368Y-42730830D01*
X31429781Y-42741866D01*
X31447024Y-42754654D01*
X31462930Y-42769070D01*
X31477346Y-42784976D01*
X31490134Y-42802219D01*
X31501170Y-42820632D01*
X31510349Y-42840038D01*
X31517581Y-42860250D01*
X31522797Y-42881074D01*
X31525947Y-42902309D01*
X31527000Y-42923750D01*
X31527000Y-43436250D01*
X31525947Y-43457691D01*
X31522797Y-43478926D01*
X31517581Y-43499750D01*
X31510349Y-43519962D01*
X31501170Y-43539368D01*
X31490134Y-43557781D01*
X31477346Y-43575024D01*
X31462930Y-43590930D01*
X31447024Y-43605346D01*
X31429781Y-43618134D01*
X31411368Y-43629170D01*
X31391962Y-43638349D01*
X31371750Y-43645581D01*
X31350926Y-43650797D01*
X31329691Y-43653947D01*
X31308250Y-43655000D01*
X30870750Y-43655000D01*
X30849309Y-43653947D01*
X30828074Y-43650797D01*
X30807250Y-43645581D01*
X30787038Y-43638349D01*
X30767632Y-43629170D01*
X30749219Y-43618134D01*
X30731976Y-43605346D01*
X30716070Y-43590930D01*
X30701654Y-43575024D01*
X30688866Y-43557781D01*
X30677830Y-43539368D01*
X30668651Y-43519962D01*
X30661419Y-43499750D01*
X30656203Y-43478926D01*
X30653053Y-43457691D01*
X30652000Y-43436250D01*
X30652000Y-42923750D01*
X30653053Y-42902309D01*
X30656203Y-42881074D01*
X30661419Y-42860250D01*
X30668651Y-42840038D01*
X30677830Y-42820632D01*
X30688866Y-42802219D01*
X30701654Y-42784976D01*
X30716070Y-42769070D01*
X30731976Y-42754654D01*
X30749219Y-42741866D01*
X30767632Y-42730830D01*
X30787038Y-42721651D01*
X30807250Y-42714419D01*
X30828074Y-42709203D01*
X30849309Y-42706053D01*
X30870750Y-42705000D01*
X31308250Y-42705000D01*
X31329691Y-42706053D01*
X31329691Y-42706053D01*
G37*
D16*
X31089500Y-43180000D03*
D14*
G36*
X32904691Y-42706053D02*
G01*
X32925926Y-42709203D01*
X32946750Y-42714419D01*
X32966962Y-42721651D01*
X32986368Y-42730830D01*
X33004781Y-42741866D01*
X33022024Y-42754654D01*
X33037930Y-42769070D01*
X33052346Y-42784976D01*
X33065134Y-42802219D01*
X33076170Y-42820632D01*
X33085349Y-42840038D01*
X33092581Y-42860250D01*
X33097797Y-42881074D01*
X33100947Y-42902309D01*
X33102000Y-42923750D01*
X33102000Y-43436250D01*
X33100947Y-43457691D01*
X33097797Y-43478926D01*
X33092581Y-43499750D01*
X33085349Y-43519962D01*
X33076170Y-43539368D01*
X33065134Y-43557781D01*
X33052346Y-43575024D01*
X33037930Y-43590930D01*
X33022024Y-43605346D01*
X33004781Y-43618134D01*
X32986368Y-43629170D01*
X32966962Y-43638349D01*
X32946750Y-43645581D01*
X32925926Y-43650797D01*
X32904691Y-43653947D01*
X32883250Y-43655000D01*
X32445750Y-43655000D01*
X32424309Y-43653947D01*
X32403074Y-43650797D01*
X32382250Y-43645581D01*
X32362038Y-43638349D01*
X32342632Y-43629170D01*
X32324219Y-43618134D01*
X32306976Y-43605346D01*
X32291070Y-43590930D01*
X32276654Y-43575024D01*
X32263866Y-43557781D01*
X32252830Y-43539368D01*
X32243651Y-43519962D01*
X32236419Y-43499750D01*
X32231203Y-43478926D01*
X32228053Y-43457691D01*
X32227000Y-43436250D01*
X32227000Y-42923750D01*
X32228053Y-42902309D01*
X32231203Y-42881074D01*
X32236419Y-42860250D01*
X32243651Y-42840038D01*
X32252830Y-42820632D01*
X32263866Y-42802219D01*
X32276654Y-42784976D01*
X32291070Y-42769070D01*
X32306976Y-42754654D01*
X32324219Y-42741866D01*
X32342632Y-42730830D01*
X32362038Y-42721651D01*
X32382250Y-42714419D01*
X32403074Y-42709203D01*
X32424309Y-42706053D01*
X32445750Y-42705000D01*
X32883250Y-42705000D01*
X32904691Y-42706053D01*
X32904691Y-42706053D01*
G37*
D16*
X32664500Y-43180000D03*
D14*
G36*
X30237691Y-44484053D02*
G01*
X30258926Y-44487203D01*
X30279750Y-44492419D01*
X30299962Y-44499651D01*
X30319368Y-44508830D01*
X30337781Y-44519866D01*
X30355024Y-44532654D01*
X30370930Y-44547070D01*
X30385346Y-44562976D01*
X30398134Y-44580219D01*
X30409170Y-44598632D01*
X30418349Y-44618038D01*
X30425581Y-44638250D01*
X30430797Y-44659074D01*
X30433947Y-44680309D01*
X30435000Y-44701750D01*
X30435000Y-45214250D01*
X30433947Y-45235691D01*
X30430797Y-45256926D01*
X30425581Y-45277750D01*
X30418349Y-45297962D01*
X30409170Y-45317368D01*
X30398134Y-45335781D01*
X30385346Y-45353024D01*
X30370930Y-45368930D01*
X30355024Y-45383346D01*
X30337781Y-45396134D01*
X30319368Y-45407170D01*
X30299962Y-45416349D01*
X30279750Y-45423581D01*
X30258926Y-45428797D01*
X30237691Y-45431947D01*
X30216250Y-45433000D01*
X29778750Y-45433000D01*
X29757309Y-45431947D01*
X29736074Y-45428797D01*
X29715250Y-45423581D01*
X29695038Y-45416349D01*
X29675632Y-45407170D01*
X29657219Y-45396134D01*
X29639976Y-45383346D01*
X29624070Y-45368930D01*
X29609654Y-45353024D01*
X29596866Y-45335781D01*
X29585830Y-45317368D01*
X29576651Y-45297962D01*
X29569419Y-45277750D01*
X29564203Y-45256926D01*
X29561053Y-45235691D01*
X29560000Y-45214250D01*
X29560000Y-44701750D01*
X29561053Y-44680309D01*
X29564203Y-44659074D01*
X29569419Y-44638250D01*
X29576651Y-44618038D01*
X29585830Y-44598632D01*
X29596866Y-44580219D01*
X29609654Y-44562976D01*
X29624070Y-44547070D01*
X29639976Y-44532654D01*
X29657219Y-44519866D01*
X29675632Y-44508830D01*
X29695038Y-44499651D01*
X29715250Y-44492419D01*
X29736074Y-44487203D01*
X29757309Y-44484053D01*
X29778750Y-44483000D01*
X30216250Y-44483000D01*
X30237691Y-44484053D01*
X30237691Y-44484053D01*
G37*
D16*
X29997500Y-44958000D03*
D14*
G36*
X28662691Y-44484053D02*
G01*
X28683926Y-44487203D01*
X28704750Y-44492419D01*
X28724962Y-44499651D01*
X28744368Y-44508830D01*
X28762781Y-44519866D01*
X28780024Y-44532654D01*
X28795930Y-44547070D01*
X28810346Y-44562976D01*
X28823134Y-44580219D01*
X28834170Y-44598632D01*
X28843349Y-44618038D01*
X28850581Y-44638250D01*
X28855797Y-44659074D01*
X28858947Y-44680309D01*
X28860000Y-44701750D01*
X28860000Y-45214250D01*
X28858947Y-45235691D01*
X28855797Y-45256926D01*
X28850581Y-45277750D01*
X28843349Y-45297962D01*
X28834170Y-45317368D01*
X28823134Y-45335781D01*
X28810346Y-45353024D01*
X28795930Y-45368930D01*
X28780024Y-45383346D01*
X28762781Y-45396134D01*
X28744368Y-45407170D01*
X28724962Y-45416349D01*
X28704750Y-45423581D01*
X28683926Y-45428797D01*
X28662691Y-45431947D01*
X28641250Y-45433000D01*
X28203750Y-45433000D01*
X28182309Y-45431947D01*
X28161074Y-45428797D01*
X28140250Y-45423581D01*
X28120038Y-45416349D01*
X28100632Y-45407170D01*
X28082219Y-45396134D01*
X28064976Y-45383346D01*
X28049070Y-45368930D01*
X28034654Y-45353024D01*
X28021866Y-45335781D01*
X28010830Y-45317368D01*
X28001651Y-45297962D01*
X27994419Y-45277750D01*
X27989203Y-45256926D01*
X27986053Y-45235691D01*
X27985000Y-45214250D01*
X27985000Y-44701750D01*
X27986053Y-44680309D01*
X27989203Y-44659074D01*
X27994419Y-44638250D01*
X28001651Y-44618038D01*
X28010830Y-44598632D01*
X28021866Y-44580219D01*
X28034654Y-44562976D01*
X28049070Y-44547070D01*
X28064976Y-44532654D01*
X28082219Y-44519866D01*
X28100632Y-44508830D01*
X28120038Y-44499651D01*
X28140250Y-44492419D01*
X28161074Y-44487203D01*
X28182309Y-44484053D01*
X28203750Y-44483000D01*
X28641250Y-44483000D01*
X28662691Y-44484053D01*
X28662691Y-44484053D01*
G37*
D16*
X28422500Y-44958000D03*
D14*
G36*
X21931691Y-47278053D02*
G01*
X21952926Y-47281203D01*
X21973750Y-47286419D01*
X21993962Y-47293651D01*
X22013368Y-47302830D01*
X22031781Y-47313866D01*
X22049024Y-47326654D01*
X22064930Y-47341070D01*
X22079346Y-47356976D01*
X22092134Y-47374219D01*
X22103170Y-47392632D01*
X22112349Y-47412038D01*
X22119581Y-47432250D01*
X22124797Y-47453074D01*
X22127947Y-47474309D01*
X22129000Y-47495750D01*
X22129000Y-48008250D01*
X22127947Y-48029691D01*
X22124797Y-48050926D01*
X22119581Y-48071750D01*
X22112349Y-48091962D01*
X22103170Y-48111368D01*
X22092134Y-48129781D01*
X22079346Y-48147024D01*
X22064930Y-48162930D01*
X22049024Y-48177346D01*
X22031781Y-48190134D01*
X22013368Y-48201170D01*
X21993962Y-48210349D01*
X21973750Y-48217581D01*
X21952926Y-48222797D01*
X21931691Y-48225947D01*
X21910250Y-48227000D01*
X21472750Y-48227000D01*
X21451309Y-48225947D01*
X21430074Y-48222797D01*
X21409250Y-48217581D01*
X21389038Y-48210349D01*
X21369632Y-48201170D01*
X21351219Y-48190134D01*
X21333976Y-48177346D01*
X21318070Y-48162930D01*
X21303654Y-48147024D01*
X21290866Y-48129781D01*
X21279830Y-48111368D01*
X21270651Y-48091962D01*
X21263419Y-48071750D01*
X21258203Y-48050926D01*
X21255053Y-48029691D01*
X21254000Y-48008250D01*
X21254000Y-47495750D01*
X21255053Y-47474309D01*
X21258203Y-47453074D01*
X21263419Y-47432250D01*
X21270651Y-47412038D01*
X21279830Y-47392632D01*
X21290866Y-47374219D01*
X21303654Y-47356976D01*
X21318070Y-47341070D01*
X21333976Y-47326654D01*
X21351219Y-47313866D01*
X21369632Y-47302830D01*
X21389038Y-47293651D01*
X21409250Y-47286419D01*
X21430074Y-47281203D01*
X21451309Y-47278053D01*
X21472750Y-47277000D01*
X21910250Y-47277000D01*
X21931691Y-47278053D01*
X21931691Y-47278053D01*
G37*
D16*
X21691500Y-47752000D03*
D14*
G36*
X23506691Y-47278053D02*
G01*
X23527926Y-47281203D01*
X23548750Y-47286419D01*
X23568962Y-47293651D01*
X23588368Y-47302830D01*
X23606781Y-47313866D01*
X23624024Y-47326654D01*
X23639930Y-47341070D01*
X23654346Y-47356976D01*
X23667134Y-47374219D01*
X23678170Y-47392632D01*
X23687349Y-47412038D01*
X23694581Y-47432250D01*
X23699797Y-47453074D01*
X23702947Y-47474309D01*
X23704000Y-47495750D01*
X23704000Y-48008250D01*
X23702947Y-48029691D01*
X23699797Y-48050926D01*
X23694581Y-48071750D01*
X23687349Y-48091962D01*
X23678170Y-48111368D01*
X23667134Y-48129781D01*
X23654346Y-48147024D01*
X23639930Y-48162930D01*
X23624024Y-48177346D01*
X23606781Y-48190134D01*
X23588368Y-48201170D01*
X23568962Y-48210349D01*
X23548750Y-48217581D01*
X23527926Y-48222797D01*
X23506691Y-48225947D01*
X23485250Y-48227000D01*
X23047750Y-48227000D01*
X23026309Y-48225947D01*
X23005074Y-48222797D01*
X22984250Y-48217581D01*
X22964038Y-48210349D01*
X22944632Y-48201170D01*
X22926219Y-48190134D01*
X22908976Y-48177346D01*
X22893070Y-48162930D01*
X22878654Y-48147024D01*
X22865866Y-48129781D01*
X22854830Y-48111368D01*
X22845651Y-48091962D01*
X22838419Y-48071750D01*
X22833203Y-48050926D01*
X22830053Y-48029691D01*
X22829000Y-48008250D01*
X22829000Y-47495750D01*
X22830053Y-47474309D01*
X22833203Y-47453074D01*
X22838419Y-47432250D01*
X22845651Y-47412038D01*
X22854830Y-47392632D01*
X22865866Y-47374219D01*
X22878654Y-47356976D01*
X22893070Y-47341070D01*
X22908976Y-47326654D01*
X22926219Y-47313866D01*
X22944632Y-47302830D01*
X22964038Y-47293651D01*
X22984250Y-47286419D01*
X23005074Y-47281203D01*
X23026309Y-47278053D01*
X23047750Y-47277000D01*
X23485250Y-47277000D01*
X23506691Y-47278053D01*
X23506691Y-47278053D01*
G37*
D16*
X23266500Y-47752000D03*
D14*
G36*
X41489691Y-42706053D02*
G01*
X41510926Y-42709203D01*
X41531750Y-42714419D01*
X41551962Y-42721651D01*
X41571368Y-42730830D01*
X41589781Y-42741866D01*
X41607024Y-42754654D01*
X41622930Y-42769070D01*
X41637346Y-42784976D01*
X41650134Y-42802219D01*
X41661170Y-42820632D01*
X41670349Y-42840038D01*
X41677581Y-42860250D01*
X41682797Y-42881074D01*
X41685947Y-42902309D01*
X41687000Y-42923750D01*
X41687000Y-43436250D01*
X41685947Y-43457691D01*
X41682797Y-43478926D01*
X41677581Y-43499750D01*
X41670349Y-43519962D01*
X41661170Y-43539368D01*
X41650134Y-43557781D01*
X41637346Y-43575024D01*
X41622930Y-43590930D01*
X41607024Y-43605346D01*
X41589781Y-43618134D01*
X41571368Y-43629170D01*
X41551962Y-43638349D01*
X41531750Y-43645581D01*
X41510926Y-43650797D01*
X41489691Y-43653947D01*
X41468250Y-43655000D01*
X41030750Y-43655000D01*
X41009309Y-43653947D01*
X40988074Y-43650797D01*
X40967250Y-43645581D01*
X40947038Y-43638349D01*
X40927632Y-43629170D01*
X40909219Y-43618134D01*
X40891976Y-43605346D01*
X40876070Y-43590930D01*
X40861654Y-43575024D01*
X40848866Y-43557781D01*
X40837830Y-43539368D01*
X40828651Y-43519962D01*
X40821419Y-43499750D01*
X40816203Y-43478926D01*
X40813053Y-43457691D01*
X40812000Y-43436250D01*
X40812000Y-42923750D01*
X40813053Y-42902309D01*
X40816203Y-42881074D01*
X40821419Y-42860250D01*
X40828651Y-42840038D01*
X40837830Y-42820632D01*
X40848866Y-42802219D01*
X40861654Y-42784976D01*
X40876070Y-42769070D01*
X40891976Y-42754654D01*
X40909219Y-42741866D01*
X40927632Y-42730830D01*
X40947038Y-42721651D01*
X40967250Y-42714419D01*
X40988074Y-42709203D01*
X41009309Y-42706053D01*
X41030750Y-42705000D01*
X41468250Y-42705000D01*
X41489691Y-42706053D01*
X41489691Y-42706053D01*
G37*
D16*
X41249500Y-43180000D03*
D14*
G36*
X43064691Y-42706053D02*
G01*
X43085926Y-42709203D01*
X43106750Y-42714419D01*
X43126962Y-42721651D01*
X43146368Y-42730830D01*
X43164781Y-42741866D01*
X43182024Y-42754654D01*
X43197930Y-42769070D01*
X43212346Y-42784976D01*
X43225134Y-42802219D01*
X43236170Y-42820632D01*
X43245349Y-42840038D01*
X43252581Y-42860250D01*
X43257797Y-42881074D01*
X43260947Y-42902309D01*
X43262000Y-42923750D01*
X43262000Y-43436250D01*
X43260947Y-43457691D01*
X43257797Y-43478926D01*
X43252581Y-43499750D01*
X43245349Y-43519962D01*
X43236170Y-43539368D01*
X43225134Y-43557781D01*
X43212346Y-43575024D01*
X43197930Y-43590930D01*
X43182024Y-43605346D01*
X43164781Y-43618134D01*
X43146368Y-43629170D01*
X43126962Y-43638349D01*
X43106750Y-43645581D01*
X43085926Y-43650797D01*
X43064691Y-43653947D01*
X43043250Y-43655000D01*
X42605750Y-43655000D01*
X42584309Y-43653947D01*
X42563074Y-43650797D01*
X42542250Y-43645581D01*
X42522038Y-43638349D01*
X42502632Y-43629170D01*
X42484219Y-43618134D01*
X42466976Y-43605346D01*
X42451070Y-43590930D01*
X42436654Y-43575024D01*
X42423866Y-43557781D01*
X42412830Y-43539368D01*
X42403651Y-43519962D01*
X42396419Y-43499750D01*
X42391203Y-43478926D01*
X42388053Y-43457691D01*
X42387000Y-43436250D01*
X42387000Y-42923750D01*
X42388053Y-42902309D01*
X42391203Y-42881074D01*
X42396419Y-42860250D01*
X42403651Y-42840038D01*
X42412830Y-42820632D01*
X42423866Y-42802219D01*
X42436654Y-42784976D01*
X42451070Y-42769070D01*
X42466976Y-42754654D01*
X42484219Y-42741866D01*
X42502632Y-42730830D01*
X42522038Y-42721651D01*
X42542250Y-42714419D01*
X42563074Y-42709203D01*
X42584309Y-42706053D01*
X42605750Y-42705000D01*
X43043250Y-42705000D01*
X43064691Y-42706053D01*
X43064691Y-42706053D01*
G37*
D16*
X42824500Y-43180000D03*
D14*
G36*
X40397691Y-44484053D02*
G01*
X40418926Y-44487203D01*
X40439750Y-44492419D01*
X40459962Y-44499651D01*
X40479368Y-44508830D01*
X40497781Y-44519866D01*
X40515024Y-44532654D01*
X40530930Y-44547070D01*
X40545346Y-44562976D01*
X40558134Y-44580219D01*
X40569170Y-44598632D01*
X40578349Y-44618038D01*
X40585581Y-44638250D01*
X40590797Y-44659074D01*
X40593947Y-44680309D01*
X40595000Y-44701750D01*
X40595000Y-45214250D01*
X40593947Y-45235691D01*
X40590797Y-45256926D01*
X40585581Y-45277750D01*
X40578349Y-45297962D01*
X40569170Y-45317368D01*
X40558134Y-45335781D01*
X40545346Y-45353024D01*
X40530930Y-45368930D01*
X40515024Y-45383346D01*
X40497781Y-45396134D01*
X40479368Y-45407170D01*
X40459962Y-45416349D01*
X40439750Y-45423581D01*
X40418926Y-45428797D01*
X40397691Y-45431947D01*
X40376250Y-45433000D01*
X39938750Y-45433000D01*
X39917309Y-45431947D01*
X39896074Y-45428797D01*
X39875250Y-45423581D01*
X39855038Y-45416349D01*
X39835632Y-45407170D01*
X39817219Y-45396134D01*
X39799976Y-45383346D01*
X39784070Y-45368930D01*
X39769654Y-45353024D01*
X39756866Y-45335781D01*
X39745830Y-45317368D01*
X39736651Y-45297962D01*
X39729419Y-45277750D01*
X39724203Y-45256926D01*
X39721053Y-45235691D01*
X39720000Y-45214250D01*
X39720000Y-44701750D01*
X39721053Y-44680309D01*
X39724203Y-44659074D01*
X39729419Y-44638250D01*
X39736651Y-44618038D01*
X39745830Y-44598632D01*
X39756866Y-44580219D01*
X39769654Y-44562976D01*
X39784070Y-44547070D01*
X39799976Y-44532654D01*
X39817219Y-44519866D01*
X39835632Y-44508830D01*
X39855038Y-44499651D01*
X39875250Y-44492419D01*
X39896074Y-44487203D01*
X39917309Y-44484053D01*
X39938750Y-44483000D01*
X40376250Y-44483000D01*
X40397691Y-44484053D01*
X40397691Y-44484053D01*
G37*
D16*
X40157500Y-44958000D03*
D14*
G36*
X38822691Y-44484053D02*
G01*
X38843926Y-44487203D01*
X38864750Y-44492419D01*
X38884962Y-44499651D01*
X38904368Y-44508830D01*
X38922781Y-44519866D01*
X38940024Y-44532654D01*
X38955930Y-44547070D01*
X38970346Y-44562976D01*
X38983134Y-44580219D01*
X38994170Y-44598632D01*
X39003349Y-44618038D01*
X39010581Y-44638250D01*
X39015797Y-44659074D01*
X39018947Y-44680309D01*
X39020000Y-44701750D01*
X39020000Y-45214250D01*
X39018947Y-45235691D01*
X39015797Y-45256926D01*
X39010581Y-45277750D01*
X39003349Y-45297962D01*
X38994170Y-45317368D01*
X38983134Y-45335781D01*
X38970346Y-45353024D01*
X38955930Y-45368930D01*
X38940024Y-45383346D01*
X38922781Y-45396134D01*
X38904368Y-45407170D01*
X38884962Y-45416349D01*
X38864750Y-45423581D01*
X38843926Y-45428797D01*
X38822691Y-45431947D01*
X38801250Y-45433000D01*
X38363750Y-45433000D01*
X38342309Y-45431947D01*
X38321074Y-45428797D01*
X38300250Y-45423581D01*
X38280038Y-45416349D01*
X38260632Y-45407170D01*
X38242219Y-45396134D01*
X38224976Y-45383346D01*
X38209070Y-45368930D01*
X38194654Y-45353024D01*
X38181866Y-45335781D01*
X38170830Y-45317368D01*
X38161651Y-45297962D01*
X38154419Y-45277750D01*
X38149203Y-45256926D01*
X38146053Y-45235691D01*
X38145000Y-45214250D01*
X38145000Y-44701750D01*
X38146053Y-44680309D01*
X38149203Y-44659074D01*
X38154419Y-44638250D01*
X38161651Y-44618038D01*
X38170830Y-44598632D01*
X38181866Y-44580219D01*
X38194654Y-44562976D01*
X38209070Y-44547070D01*
X38224976Y-44532654D01*
X38242219Y-44519866D01*
X38260632Y-44508830D01*
X38280038Y-44499651D01*
X38300250Y-44492419D01*
X38321074Y-44487203D01*
X38342309Y-44484053D01*
X38363750Y-44483000D01*
X38801250Y-44483000D01*
X38822691Y-44484053D01*
X38822691Y-44484053D01*
G37*
D16*
X38582500Y-44958000D03*
D14*
G36*
X51649691Y-42706053D02*
G01*
X51670926Y-42709203D01*
X51691750Y-42714419D01*
X51711962Y-42721651D01*
X51731368Y-42730830D01*
X51749781Y-42741866D01*
X51767024Y-42754654D01*
X51782930Y-42769070D01*
X51797346Y-42784976D01*
X51810134Y-42802219D01*
X51821170Y-42820632D01*
X51830349Y-42840038D01*
X51837581Y-42860250D01*
X51842797Y-42881074D01*
X51845947Y-42902309D01*
X51847000Y-42923750D01*
X51847000Y-43436250D01*
X51845947Y-43457691D01*
X51842797Y-43478926D01*
X51837581Y-43499750D01*
X51830349Y-43519962D01*
X51821170Y-43539368D01*
X51810134Y-43557781D01*
X51797346Y-43575024D01*
X51782930Y-43590930D01*
X51767024Y-43605346D01*
X51749781Y-43618134D01*
X51731368Y-43629170D01*
X51711962Y-43638349D01*
X51691750Y-43645581D01*
X51670926Y-43650797D01*
X51649691Y-43653947D01*
X51628250Y-43655000D01*
X51190750Y-43655000D01*
X51169309Y-43653947D01*
X51148074Y-43650797D01*
X51127250Y-43645581D01*
X51107038Y-43638349D01*
X51087632Y-43629170D01*
X51069219Y-43618134D01*
X51051976Y-43605346D01*
X51036070Y-43590930D01*
X51021654Y-43575024D01*
X51008866Y-43557781D01*
X50997830Y-43539368D01*
X50988651Y-43519962D01*
X50981419Y-43499750D01*
X50976203Y-43478926D01*
X50973053Y-43457691D01*
X50972000Y-43436250D01*
X50972000Y-42923750D01*
X50973053Y-42902309D01*
X50976203Y-42881074D01*
X50981419Y-42860250D01*
X50988651Y-42840038D01*
X50997830Y-42820632D01*
X51008866Y-42802219D01*
X51021654Y-42784976D01*
X51036070Y-42769070D01*
X51051976Y-42754654D01*
X51069219Y-42741866D01*
X51087632Y-42730830D01*
X51107038Y-42721651D01*
X51127250Y-42714419D01*
X51148074Y-42709203D01*
X51169309Y-42706053D01*
X51190750Y-42705000D01*
X51628250Y-42705000D01*
X51649691Y-42706053D01*
X51649691Y-42706053D01*
G37*
D16*
X51409500Y-43180000D03*
D14*
G36*
X53224691Y-42706053D02*
G01*
X53245926Y-42709203D01*
X53266750Y-42714419D01*
X53286962Y-42721651D01*
X53306368Y-42730830D01*
X53324781Y-42741866D01*
X53342024Y-42754654D01*
X53357930Y-42769070D01*
X53372346Y-42784976D01*
X53385134Y-42802219D01*
X53396170Y-42820632D01*
X53405349Y-42840038D01*
X53412581Y-42860250D01*
X53417797Y-42881074D01*
X53420947Y-42902309D01*
X53422000Y-42923750D01*
X53422000Y-43436250D01*
X53420947Y-43457691D01*
X53417797Y-43478926D01*
X53412581Y-43499750D01*
X53405349Y-43519962D01*
X53396170Y-43539368D01*
X53385134Y-43557781D01*
X53372346Y-43575024D01*
X53357930Y-43590930D01*
X53342024Y-43605346D01*
X53324781Y-43618134D01*
X53306368Y-43629170D01*
X53286962Y-43638349D01*
X53266750Y-43645581D01*
X53245926Y-43650797D01*
X53224691Y-43653947D01*
X53203250Y-43655000D01*
X52765750Y-43655000D01*
X52744309Y-43653947D01*
X52723074Y-43650797D01*
X52702250Y-43645581D01*
X52682038Y-43638349D01*
X52662632Y-43629170D01*
X52644219Y-43618134D01*
X52626976Y-43605346D01*
X52611070Y-43590930D01*
X52596654Y-43575024D01*
X52583866Y-43557781D01*
X52572830Y-43539368D01*
X52563651Y-43519962D01*
X52556419Y-43499750D01*
X52551203Y-43478926D01*
X52548053Y-43457691D01*
X52547000Y-43436250D01*
X52547000Y-42923750D01*
X52548053Y-42902309D01*
X52551203Y-42881074D01*
X52556419Y-42860250D01*
X52563651Y-42840038D01*
X52572830Y-42820632D01*
X52583866Y-42802219D01*
X52596654Y-42784976D01*
X52611070Y-42769070D01*
X52626976Y-42754654D01*
X52644219Y-42741866D01*
X52662632Y-42730830D01*
X52682038Y-42721651D01*
X52702250Y-42714419D01*
X52723074Y-42709203D01*
X52744309Y-42706053D01*
X52765750Y-42705000D01*
X53203250Y-42705000D01*
X53224691Y-42706053D01*
X53224691Y-42706053D01*
G37*
D16*
X52984500Y-43180000D03*
D14*
G36*
X50557691Y-44484053D02*
G01*
X50578926Y-44487203D01*
X50599750Y-44492419D01*
X50619962Y-44499651D01*
X50639368Y-44508830D01*
X50657781Y-44519866D01*
X50675024Y-44532654D01*
X50690930Y-44547070D01*
X50705346Y-44562976D01*
X50718134Y-44580219D01*
X50729170Y-44598632D01*
X50738349Y-44618038D01*
X50745581Y-44638250D01*
X50750797Y-44659074D01*
X50753947Y-44680309D01*
X50755000Y-44701750D01*
X50755000Y-45214250D01*
X50753947Y-45235691D01*
X50750797Y-45256926D01*
X50745581Y-45277750D01*
X50738349Y-45297962D01*
X50729170Y-45317368D01*
X50718134Y-45335781D01*
X50705346Y-45353024D01*
X50690930Y-45368930D01*
X50675024Y-45383346D01*
X50657781Y-45396134D01*
X50639368Y-45407170D01*
X50619962Y-45416349D01*
X50599750Y-45423581D01*
X50578926Y-45428797D01*
X50557691Y-45431947D01*
X50536250Y-45433000D01*
X50098750Y-45433000D01*
X50077309Y-45431947D01*
X50056074Y-45428797D01*
X50035250Y-45423581D01*
X50015038Y-45416349D01*
X49995632Y-45407170D01*
X49977219Y-45396134D01*
X49959976Y-45383346D01*
X49944070Y-45368930D01*
X49929654Y-45353024D01*
X49916866Y-45335781D01*
X49905830Y-45317368D01*
X49896651Y-45297962D01*
X49889419Y-45277750D01*
X49884203Y-45256926D01*
X49881053Y-45235691D01*
X49880000Y-45214250D01*
X49880000Y-44701750D01*
X49881053Y-44680309D01*
X49884203Y-44659074D01*
X49889419Y-44638250D01*
X49896651Y-44618038D01*
X49905830Y-44598632D01*
X49916866Y-44580219D01*
X49929654Y-44562976D01*
X49944070Y-44547070D01*
X49959976Y-44532654D01*
X49977219Y-44519866D01*
X49995632Y-44508830D01*
X50015038Y-44499651D01*
X50035250Y-44492419D01*
X50056074Y-44487203D01*
X50077309Y-44484053D01*
X50098750Y-44483000D01*
X50536250Y-44483000D01*
X50557691Y-44484053D01*
X50557691Y-44484053D01*
G37*
D16*
X50317500Y-44958000D03*
D14*
G36*
X48982691Y-44484053D02*
G01*
X49003926Y-44487203D01*
X49024750Y-44492419D01*
X49044962Y-44499651D01*
X49064368Y-44508830D01*
X49082781Y-44519866D01*
X49100024Y-44532654D01*
X49115930Y-44547070D01*
X49130346Y-44562976D01*
X49143134Y-44580219D01*
X49154170Y-44598632D01*
X49163349Y-44618038D01*
X49170581Y-44638250D01*
X49175797Y-44659074D01*
X49178947Y-44680309D01*
X49180000Y-44701750D01*
X49180000Y-45214250D01*
X49178947Y-45235691D01*
X49175797Y-45256926D01*
X49170581Y-45277750D01*
X49163349Y-45297962D01*
X49154170Y-45317368D01*
X49143134Y-45335781D01*
X49130346Y-45353024D01*
X49115930Y-45368930D01*
X49100024Y-45383346D01*
X49082781Y-45396134D01*
X49064368Y-45407170D01*
X49044962Y-45416349D01*
X49024750Y-45423581D01*
X49003926Y-45428797D01*
X48982691Y-45431947D01*
X48961250Y-45433000D01*
X48523750Y-45433000D01*
X48502309Y-45431947D01*
X48481074Y-45428797D01*
X48460250Y-45423581D01*
X48440038Y-45416349D01*
X48420632Y-45407170D01*
X48402219Y-45396134D01*
X48384976Y-45383346D01*
X48369070Y-45368930D01*
X48354654Y-45353024D01*
X48341866Y-45335781D01*
X48330830Y-45317368D01*
X48321651Y-45297962D01*
X48314419Y-45277750D01*
X48309203Y-45256926D01*
X48306053Y-45235691D01*
X48305000Y-45214250D01*
X48305000Y-44701750D01*
X48306053Y-44680309D01*
X48309203Y-44659074D01*
X48314419Y-44638250D01*
X48321651Y-44618038D01*
X48330830Y-44598632D01*
X48341866Y-44580219D01*
X48354654Y-44562976D01*
X48369070Y-44547070D01*
X48384976Y-44532654D01*
X48402219Y-44519866D01*
X48420632Y-44508830D01*
X48440038Y-44499651D01*
X48460250Y-44492419D01*
X48481074Y-44487203D01*
X48502309Y-44484053D01*
X48523750Y-44483000D01*
X48961250Y-44483000D01*
X48982691Y-44484053D01*
X48982691Y-44484053D01*
G37*
D16*
X48742500Y-44958000D03*
D14*
G36*
X32904691Y-43976053D02*
G01*
X32925926Y-43979203D01*
X32946750Y-43984419D01*
X32966962Y-43991651D01*
X32986368Y-44000830D01*
X33004781Y-44011866D01*
X33022024Y-44024654D01*
X33037930Y-44039070D01*
X33052346Y-44054976D01*
X33065134Y-44072219D01*
X33076170Y-44090632D01*
X33085349Y-44110038D01*
X33092581Y-44130250D01*
X33097797Y-44151074D01*
X33100947Y-44172309D01*
X33102000Y-44193750D01*
X33102000Y-44706250D01*
X33100947Y-44727691D01*
X33097797Y-44748926D01*
X33092581Y-44769750D01*
X33085349Y-44789962D01*
X33076170Y-44809368D01*
X33065134Y-44827781D01*
X33052346Y-44845024D01*
X33037930Y-44860930D01*
X33022024Y-44875346D01*
X33004781Y-44888134D01*
X32986368Y-44899170D01*
X32966962Y-44908349D01*
X32946750Y-44915581D01*
X32925926Y-44920797D01*
X32904691Y-44923947D01*
X32883250Y-44925000D01*
X32445750Y-44925000D01*
X32424309Y-44923947D01*
X32403074Y-44920797D01*
X32382250Y-44915581D01*
X32362038Y-44908349D01*
X32342632Y-44899170D01*
X32324219Y-44888134D01*
X32306976Y-44875346D01*
X32291070Y-44860930D01*
X32276654Y-44845024D01*
X32263866Y-44827781D01*
X32252830Y-44809368D01*
X32243651Y-44789962D01*
X32236419Y-44769750D01*
X32231203Y-44748926D01*
X32228053Y-44727691D01*
X32227000Y-44706250D01*
X32227000Y-44193750D01*
X32228053Y-44172309D01*
X32231203Y-44151074D01*
X32236419Y-44130250D01*
X32243651Y-44110038D01*
X32252830Y-44090632D01*
X32263866Y-44072219D01*
X32276654Y-44054976D01*
X32291070Y-44039070D01*
X32306976Y-44024654D01*
X32324219Y-44011866D01*
X32342632Y-44000830D01*
X32362038Y-43991651D01*
X32382250Y-43984419D01*
X32403074Y-43979203D01*
X32424309Y-43976053D01*
X32445750Y-43975000D01*
X32883250Y-43975000D01*
X32904691Y-43976053D01*
X32904691Y-43976053D01*
G37*
D16*
X32664500Y-44450000D03*
D14*
G36*
X31329691Y-43976053D02*
G01*
X31350926Y-43979203D01*
X31371750Y-43984419D01*
X31391962Y-43991651D01*
X31411368Y-44000830D01*
X31429781Y-44011866D01*
X31447024Y-44024654D01*
X31462930Y-44039070D01*
X31477346Y-44054976D01*
X31490134Y-44072219D01*
X31501170Y-44090632D01*
X31510349Y-44110038D01*
X31517581Y-44130250D01*
X31522797Y-44151074D01*
X31525947Y-44172309D01*
X31527000Y-44193750D01*
X31527000Y-44706250D01*
X31525947Y-44727691D01*
X31522797Y-44748926D01*
X31517581Y-44769750D01*
X31510349Y-44789962D01*
X31501170Y-44809368D01*
X31490134Y-44827781D01*
X31477346Y-44845024D01*
X31462930Y-44860930D01*
X31447024Y-44875346D01*
X31429781Y-44888134D01*
X31411368Y-44899170D01*
X31391962Y-44908349D01*
X31371750Y-44915581D01*
X31350926Y-44920797D01*
X31329691Y-44923947D01*
X31308250Y-44925000D01*
X30870750Y-44925000D01*
X30849309Y-44923947D01*
X30828074Y-44920797D01*
X30807250Y-44915581D01*
X30787038Y-44908349D01*
X30767632Y-44899170D01*
X30749219Y-44888134D01*
X30731976Y-44875346D01*
X30716070Y-44860930D01*
X30701654Y-44845024D01*
X30688866Y-44827781D01*
X30677830Y-44809368D01*
X30668651Y-44789962D01*
X30661419Y-44769750D01*
X30656203Y-44748926D01*
X30653053Y-44727691D01*
X30652000Y-44706250D01*
X30652000Y-44193750D01*
X30653053Y-44172309D01*
X30656203Y-44151074D01*
X30661419Y-44130250D01*
X30668651Y-44110038D01*
X30677830Y-44090632D01*
X30688866Y-44072219D01*
X30701654Y-44054976D01*
X30716070Y-44039070D01*
X30731976Y-44024654D01*
X30749219Y-44011866D01*
X30767632Y-44000830D01*
X30787038Y-43991651D01*
X30807250Y-43984419D01*
X30828074Y-43979203D01*
X30849309Y-43976053D01*
X30870750Y-43975000D01*
X31308250Y-43975000D01*
X31329691Y-43976053D01*
X31329691Y-43976053D01*
G37*
D16*
X31089500Y-44450000D03*
D14*
G36*
X41489691Y-43976053D02*
G01*
X41510926Y-43979203D01*
X41531750Y-43984419D01*
X41551962Y-43991651D01*
X41571368Y-44000830D01*
X41589781Y-44011866D01*
X41607024Y-44024654D01*
X41622930Y-44039070D01*
X41637346Y-44054976D01*
X41650134Y-44072219D01*
X41661170Y-44090632D01*
X41670349Y-44110038D01*
X41677581Y-44130250D01*
X41682797Y-44151074D01*
X41685947Y-44172309D01*
X41687000Y-44193750D01*
X41687000Y-44706250D01*
X41685947Y-44727691D01*
X41682797Y-44748926D01*
X41677581Y-44769750D01*
X41670349Y-44789962D01*
X41661170Y-44809368D01*
X41650134Y-44827781D01*
X41637346Y-44845024D01*
X41622930Y-44860930D01*
X41607024Y-44875346D01*
X41589781Y-44888134D01*
X41571368Y-44899170D01*
X41551962Y-44908349D01*
X41531750Y-44915581D01*
X41510926Y-44920797D01*
X41489691Y-44923947D01*
X41468250Y-44925000D01*
X41030750Y-44925000D01*
X41009309Y-44923947D01*
X40988074Y-44920797D01*
X40967250Y-44915581D01*
X40947038Y-44908349D01*
X40927632Y-44899170D01*
X40909219Y-44888134D01*
X40891976Y-44875346D01*
X40876070Y-44860930D01*
X40861654Y-44845024D01*
X40848866Y-44827781D01*
X40837830Y-44809368D01*
X40828651Y-44789962D01*
X40821419Y-44769750D01*
X40816203Y-44748926D01*
X40813053Y-44727691D01*
X40812000Y-44706250D01*
X40812000Y-44193750D01*
X40813053Y-44172309D01*
X40816203Y-44151074D01*
X40821419Y-44130250D01*
X40828651Y-44110038D01*
X40837830Y-44090632D01*
X40848866Y-44072219D01*
X40861654Y-44054976D01*
X40876070Y-44039070D01*
X40891976Y-44024654D01*
X40909219Y-44011866D01*
X40927632Y-44000830D01*
X40947038Y-43991651D01*
X40967250Y-43984419D01*
X40988074Y-43979203D01*
X41009309Y-43976053D01*
X41030750Y-43975000D01*
X41468250Y-43975000D01*
X41489691Y-43976053D01*
X41489691Y-43976053D01*
G37*
D16*
X41249500Y-44450000D03*
D14*
G36*
X43064691Y-43976053D02*
G01*
X43085926Y-43979203D01*
X43106750Y-43984419D01*
X43126962Y-43991651D01*
X43146368Y-44000830D01*
X43164781Y-44011866D01*
X43182024Y-44024654D01*
X43197930Y-44039070D01*
X43212346Y-44054976D01*
X43225134Y-44072219D01*
X43236170Y-44090632D01*
X43245349Y-44110038D01*
X43252581Y-44130250D01*
X43257797Y-44151074D01*
X43260947Y-44172309D01*
X43262000Y-44193750D01*
X43262000Y-44706250D01*
X43260947Y-44727691D01*
X43257797Y-44748926D01*
X43252581Y-44769750D01*
X43245349Y-44789962D01*
X43236170Y-44809368D01*
X43225134Y-44827781D01*
X43212346Y-44845024D01*
X43197930Y-44860930D01*
X43182024Y-44875346D01*
X43164781Y-44888134D01*
X43146368Y-44899170D01*
X43126962Y-44908349D01*
X43106750Y-44915581D01*
X43085926Y-44920797D01*
X43064691Y-44923947D01*
X43043250Y-44925000D01*
X42605750Y-44925000D01*
X42584309Y-44923947D01*
X42563074Y-44920797D01*
X42542250Y-44915581D01*
X42522038Y-44908349D01*
X42502632Y-44899170D01*
X42484219Y-44888134D01*
X42466976Y-44875346D01*
X42451070Y-44860930D01*
X42436654Y-44845024D01*
X42423866Y-44827781D01*
X42412830Y-44809368D01*
X42403651Y-44789962D01*
X42396419Y-44769750D01*
X42391203Y-44748926D01*
X42388053Y-44727691D01*
X42387000Y-44706250D01*
X42387000Y-44193750D01*
X42388053Y-44172309D01*
X42391203Y-44151074D01*
X42396419Y-44130250D01*
X42403651Y-44110038D01*
X42412830Y-44090632D01*
X42423866Y-44072219D01*
X42436654Y-44054976D01*
X42451070Y-44039070D01*
X42466976Y-44024654D01*
X42484219Y-44011866D01*
X42502632Y-44000830D01*
X42522038Y-43991651D01*
X42542250Y-43984419D01*
X42563074Y-43979203D01*
X42584309Y-43976053D01*
X42605750Y-43975000D01*
X43043250Y-43975000D01*
X43064691Y-43976053D01*
X43064691Y-43976053D01*
G37*
D16*
X42824500Y-44450000D03*
D14*
G36*
X53224691Y-43976053D02*
G01*
X53245926Y-43979203D01*
X53266750Y-43984419D01*
X53286962Y-43991651D01*
X53306368Y-44000830D01*
X53324781Y-44011866D01*
X53342024Y-44024654D01*
X53357930Y-44039070D01*
X53372346Y-44054976D01*
X53385134Y-44072219D01*
X53396170Y-44090632D01*
X53405349Y-44110038D01*
X53412581Y-44130250D01*
X53417797Y-44151074D01*
X53420947Y-44172309D01*
X53422000Y-44193750D01*
X53422000Y-44706250D01*
X53420947Y-44727691D01*
X53417797Y-44748926D01*
X53412581Y-44769750D01*
X53405349Y-44789962D01*
X53396170Y-44809368D01*
X53385134Y-44827781D01*
X53372346Y-44845024D01*
X53357930Y-44860930D01*
X53342024Y-44875346D01*
X53324781Y-44888134D01*
X53306368Y-44899170D01*
X53286962Y-44908349D01*
X53266750Y-44915581D01*
X53245926Y-44920797D01*
X53224691Y-44923947D01*
X53203250Y-44925000D01*
X52765750Y-44925000D01*
X52744309Y-44923947D01*
X52723074Y-44920797D01*
X52702250Y-44915581D01*
X52682038Y-44908349D01*
X52662632Y-44899170D01*
X52644219Y-44888134D01*
X52626976Y-44875346D01*
X52611070Y-44860930D01*
X52596654Y-44845024D01*
X52583866Y-44827781D01*
X52572830Y-44809368D01*
X52563651Y-44789962D01*
X52556419Y-44769750D01*
X52551203Y-44748926D01*
X52548053Y-44727691D01*
X52547000Y-44706250D01*
X52547000Y-44193750D01*
X52548053Y-44172309D01*
X52551203Y-44151074D01*
X52556419Y-44130250D01*
X52563651Y-44110038D01*
X52572830Y-44090632D01*
X52583866Y-44072219D01*
X52596654Y-44054976D01*
X52611070Y-44039070D01*
X52626976Y-44024654D01*
X52644219Y-44011866D01*
X52662632Y-44000830D01*
X52682038Y-43991651D01*
X52702250Y-43984419D01*
X52723074Y-43979203D01*
X52744309Y-43976053D01*
X52765750Y-43975000D01*
X53203250Y-43975000D01*
X53224691Y-43976053D01*
X53224691Y-43976053D01*
G37*
D16*
X52984500Y-44450000D03*
D14*
G36*
X51649691Y-43976053D02*
G01*
X51670926Y-43979203D01*
X51691750Y-43984419D01*
X51711962Y-43991651D01*
X51731368Y-44000830D01*
X51749781Y-44011866D01*
X51767024Y-44024654D01*
X51782930Y-44039070D01*
X51797346Y-44054976D01*
X51810134Y-44072219D01*
X51821170Y-44090632D01*
X51830349Y-44110038D01*
X51837581Y-44130250D01*
X51842797Y-44151074D01*
X51845947Y-44172309D01*
X51847000Y-44193750D01*
X51847000Y-44706250D01*
X51845947Y-44727691D01*
X51842797Y-44748926D01*
X51837581Y-44769750D01*
X51830349Y-44789962D01*
X51821170Y-44809368D01*
X51810134Y-44827781D01*
X51797346Y-44845024D01*
X51782930Y-44860930D01*
X51767024Y-44875346D01*
X51749781Y-44888134D01*
X51731368Y-44899170D01*
X51711962Y-44908349D01*
X51691750Y-44915581D01*
X51670926Y-44920797D01*
X51649691Y-44923947D01*
X51628250Y-44925000D01*
X51190750Y-44925000D01*
X51169309Y-44923947D01*
X51148074Y-44920797D01*
X51127250Y-44915581D01*
X51107038Y-44908349D01*
X51087632Y-44899170D01*
X51069219Y-44888134D01*
X51051976Y-44875346D01*
X51036070Y-44860930D01*
X51021654Y-44845024D01*
X51008866Y-44827781D01*
X50997830Y-44809368D01*
X50988651Y-44789962D01*
X50981419Y-44769750D01*
X50976203Y-44748926D01*
X50973053Y-44727691D01*
X50972000Y-44706250D01*
X50972000Y-44193750D01*
X50973053Y-44172309D01*
X50976203Y-44151074D01*
X50981419Y-44130250D01*
X50988651Y-44110038D01*
X50997830Y-44090632D01*
X51008866Y-44072219D01*
X51021654Y-44054976D01*
X51036070Y-44039070D01*
X51051976Y-44024654D01*
X51069219Y-44011866D01*
X51087632Y-44000830D01*
X51107038Y-43991651D01*
X51127250Y-43984419D01*
X51148074Y-43979203D01*
X51169309Y-43976053D01*
X51190750Y-43975000D01*
X51628250Y-43975000D01*
X51649691Y-43976053D01*
X51649691Y-43976053D01*
G37*
D16*
X51409500Y-44450000D03*
D14*
G36*
X14196142Y-41629174D02*
G01*
X14219803Y-41632684D01*
X14243007Y-41638496D01*
X14265529Y-41646554D01*
X14287153Y-41656782D01*
X14307670Y-41669079D01*
X14326883Y-41683329D01*
X14344607Y-41699393D01*
X14360671Y-41717117D01*
X14374921Y-41736330D01*
X14387218Y-41756847D01*
X14397446Y-41778471D01*
X14405504Y-41800993D01*
X14411316Y-41824197D01*
X14414826Y-41847858D01*
X14416000Y-41871750D01*
X14416000Y-42359250D01*
X14414826Y-42383142D01*
X14411316Y-42406803D01*
X14405504Y-42430007D01*
X14397446Y-42452529D01*
X14387218Y-42474153D01*
X14374921Y-42494670D01*
X14360671Y-42513883D01*
X14344607Y-42531607D01*
X14326883Y-42547671D01*
X14307670Y-42561921D01*
X14287153Y-42574218D01*
X14265529Y-42584446D01*
X14243007Y-42592504D01*
X14219803Y-42598316D01*
X14196142Y-42601826D01*
X14172250Y-42603000D01*
X13259750Y-42603000D01*
X13235858Y-42601826D01*
X13212197Y-42598316D01*
X13188993Y-42592504D01*
X13166471Y-42584446D01*
X13144847Y-42574218D01*
X13124330Y-42561921D01*
X13105117Y-42547671D01*
X13087393Y-42531607D01*
X13071329Y-42513883D01*
X13057079Y-42494670D01*
X13044782Y-42474153D01*
X13034554Y-42452529D01*
X13026496Y-42430007D01*
X13020684Y-42406803D01*
X13017174Y-42383142D01*
X13016000Y-42359250D01*
X13016000Y-41871750D01*
X13017174Y-41847858D01*
X13020684Y-41824197D01*
X13026496Y-41800993D01*
X13034554Y-41778471D01*
X13044782Y-41756847D01*
X13057079Y-41736330D01*
X13071329Y-41717117D01*
X13087393Y-41699393D01*
X13105117Y-41683329D01*
X13124330Y-41669079D01*
X13144847Y-41656782D01*
X13166471Y-41646554D01*
X13188993Y-41638496D01*
X13212197Y-41632684D01*
X13235858Y-41629174D01*
X13259750Y-41628000D01*
X14172250Y-41628000D01*
X14196142Y-41629174D01*
X14196142Y-41629174D01*
G37*
D15*
X13716000Y-42115500D03*
D14*
G36*
X14196142Y-43504174D02*
G01*
X14219803Y-43507684D01*
X14243007Y-43513496D01*
X14265529Y-43521554D01*
X14287153Y-43531782D01*
X14307670Y-43544079D01*
X14326883Y-43558329D01*
X14344607Y-43574393D01*
X14360671Y-43592117D01*
X14374921Y-43611330D01*
X14387218Y-43631847D01*
X14397446Y-43653471D01*
X14405504Y-43675993D01*
X14411316Y-43699197D01*
X14414826Y-43722858D01*
X14416000Y-43746750D01*
X14416000Y-44234250D01*
X14414826Y-44258142D01*
X14411316Y-44281803D01*
X14405504Y-44305007D01*
X14397446Y-44327529D01*
X14387218Y-44349153D01*
X14374921Y-44369670D01*
X14360671Y-44388883D01*
X14344607Y-44406607D01*
X14326883Y-44422671D01*
X14307670Y-44436921D01*
X14287153Y-44449218D01*
X14265529Y-44459446D01*
X14243007Y-44467504D01*
X14219803Y-44473316D01*
X14196142Y-44476826D01*
X14172250Y-44478000D01*
X13259750Y-44478000D01*
X13235858Y-44476826D01*
X13212197Y-44473316D01*
X13188993Y-44467504D01*
X13166471Y-44459446D01*
X13144847Y-44449218D01*
X13124330Y-44436921D01*
X13105117Y-44422671D01*
X13087393Y-44406607D01*
X13071329Y-44388883D01*
X13057079Y-44369670D01*
X13044782Y-44349153D01*
X13034554Y-44327529D01*
X13026496Y-44305007D01*
X13020684Y-44281803D01*
X13017174Y-44258142D01*
X13016000Y-44234250D01*
X13016000Y-43746750D01*
X13017174Y-43722858D01*
X13020684Y-43699197D01*
X13026496Y-43675993D01*
X13034554Y-43653471D01*
X13044782Y-43631847D01*
X13057079Y-43611330D01*
X13071329Y-43592117D01*
X13087393Y-43574393D01*
X13105117Y-43558329D01*
X13124330Y-43544079D01*
X13144847Y-43531782D01*
X13166471Y-43521554D01*
X13188993Y-43513496D01*
X13212197Y-43507684D01*
X13235858Y-43504174D01*
X13259750Y-43503000D01*
X14172250Y-43503000D01*
X14196142Y-43504174D01*
X14196142Y-43504174D01*
G37*
D15*
X13716000Y-43990500D03*
D14*
G36*
X22287142Y-41730174D02*
G01*
X22310803Y-41733684D01*
X22334007Y-41739496D01*
X22356529Y-41747554D01*
X22378153Y-41757782D01*
X22398670Y-41770079D01*
X22417883Y-41784329D01*
X22435607Y-41800393D01*
X22451671Y-41818117D01*
X22465921Y-41837330D01*
X22478218Y-41857847D01*
X22488446Y-41879471D01*
X22496504Y-41901993D01*
X22502316Y-41925197D01*
X22505826Y-41948858D01*
X22507000Y-41972750D01*
X22507000Y-42885250D01*
X22505826Y-42909142D01*
X22502316Y-42932803D01*
X22496504Y-42956007D01*
X22488446Y-42978529D01*
X22478218Y-43000153D01*
X22465921Y-43020670D01*
X22451671Y-43039883D01*
X22435607Y-43057607D01*
X22417883Y-43073671D01*
X22398670Y-43087921D01*
X22378153Y-43100218D01*
X22356529Y-43110446D01*
X22334007Y-43118504D01*
X22310803Y-43124316D01*
X22287142Y-43127826D01*
X22263250Y-43129000D01*
X21775750Y-43129000D01*
X21751858Y-43127826D01*
X21728197Y-43124316D01*
X21704993Y-43118504D01*
X21682471Y-43110446D01*
X21660847Y-43100218D01*
X21640330Y-43087921D01*
X21621117Y-43073671D01*
X21603393Y-43057607D01*
X21587329Y-43039883D01*
X21573079Y-43020670D01*
X21560782Y-43000153D01*
X21550554Y-42978529D01*
X21542496Y-42956007D01*
X21536684Y-42932803D01*
X21533174Y-42909142D01*
X21532000Y-42885250D01*
X21532000Y-41972750D01*
X21533174Y-41948858D01*
X21536684Y-41925197D01*
X21542496Y-41901993D01*
X21550554Y-41879471D01*
X21560782Y-41857847D01*
X21573079Y-41837330D01*
X21587329Y-41818117D01*
X21603393Y-41800393D01*
X21621117Y-41784329D01*
X21640330Y-41770079D01*
X21660847Y-41757782D01*
X21682471Y-41747554D01*
X21704993Y-41739496D01*
X21728197Y-41733684D01*
X21751858Y-41730174D01*
X21775750Y-41729000D01*
X22263250Y-41729000D01*
X22287142Y-41730174D01*
X22287142Y-41730174D01*
G37*
D15*
X22019500Y-42429000D03*
D14*
G36*
X20412142Y-41730174D02*
G01*
X20435803Y-41733684D01*
X20459007Y-41739496D01*
X20481529Y-41747554D01*
X20503153Y-41757782D01*
X20523670Y-41770079D01*
X20542883Y-41784329D01*
X20560607Y-41800393D01*
X20576671Y-41818117D01*
X20590921Y-41837330D01*
X20603218Y-41857847D01*
X20613446Y-41879471D01*
X20621504Y-41901993D01*
X20627316Y-41925197D01*
X20630826Y-41948858D01*
X20632000Y-41972750D01*
X20632000Y-42885250D01*
X20630826Y-42909142D01*
X20627316Y-42932803D01*
X20621504Y-42956007D01*
X20613446Y-42978529D01*
X20603218Y-43000153D01*
X20590921Y-43020670D01*
X20576671Y-43039883D01*
X20560607Y-43057607D01*
X20542883Y-43073671D01*
X20523670Y-43087921D01*
X20503153Y-43100218D01*
X20481529Y-43110446D01*
X20459007Y-43118504D01*
X20435803Y-43124316D01*
X20412142Y-43127826D01*
X20388250Y-43129000D01*
X19900750Y-43129000D01*
X19876858Y-43127826D01*
X19853197Y-43124316D01*
X19829993Y-43118504D01*
X19807471Y-43110446D01*
X19785847Y-43100218D01*
X19765330Y-43087921D01*
X19746117Y-43073671D01*
X19728393Y-43057607D01*
X19712329Y-43039883D01*
X19698079Y-43020670D01*
X19685782Y-43000153D01*
X19675554Y-42978529D01*
X19667496Y-42956007D01*
X19661684Y-42932803D01*
X19658174Y-42909142D01*
X19657000Y-42885250D01*
X19657000Y-41972750D01*
X19658174Y-41948858D01*
X19661684Y-41925197D01*
X19667496Y-41901993D01*
X19675554Y-41879471D01*
X19685782Y-41857847D01*
X19698079Y-41837330D01*
X19712329Y-41818117D01*
X19728393Y-41800393D01*
X19746117Y-41784329D01*
X19765330Y-41770079D01*
X19785847Y-41757782D01*
X19807471Y-41747554D01*
X19829993Y-41739496D01*
X19853197Y-41733684D01*
X19876858Y-41730174D01*
X19900750Y-41729000D01*
X20388250Y-41729000D01*
X20412142Y-41730174D01*
X20412142Y-41730174D01*
G37*
D15*
X20144500Y-42429000D03*
D23*
X28432000Y-35450000D03*
X28432000Y-33550000D03*
X26432000Y-34500000D03*
D14*
G36*
X53109691Y-40356053D02*
G01*
X53130926Y-40359203D01*
X53151750Y-40364419D01*
X53171962Y-40371651D01*
X53191368Y-40380830D01*
X53209781Y-40391866D01*
X53227024Y-40404654D01*
X53242930Y-40419070D01*
X53257346Y-40434976D01*
X53270134Y-40452219D01*
X53281170Y-40470632D01*
X53290349Y-40490038D01*
X53297581Y-40510250D01*
X53302797Y-40531074D01*
X53305947Y-40552309D01*
X53307000Y-40573750D01*
X53307000Y-41011250D01*
X53305947Y-41032691D01*
X53302797Y-41053926D01*
X53297581Y-41074750D01*
X53290349Y-41094962D01*
X53281170Y-41114368D01*
X53270134Y-41132781D01*
X53257346Y-41150024D01*
X53242930Y-41165930D01*
X53227024Y-41180346D01*
X53209781Y-41193134D01*
X53191368Y-41204170D01*
X53171962Y-41213349D01*
X53151750Y-41220581D01*
X53130926Y-41225797D01*
X53109691Y-41228947D01*
X53088250Y-41230000D01*
X52575750Y-41230000D01*
X52554309Y-41228947D01*
X52533074Y-41225797D01*
X52512250Y-41220581D01*
X52492038Y-41213349D01*
X52472632Y-41204170D01*
X52454219Y-41193134D01*
X52436976Y-41180346D01*
X52421070Y-41165930D01*
X52406654Y-41150024D01*
X52393866Y-41132781D01*
X52382830Y-41114368D01*
X52373651Y-41094962D01*
X52366419Y-41074750D01*
X52361203Y-41053926D01*
X52358053Y-41032691D01*
X52357000Y-41011250D01*
X52357000Y-40573750D01*
X52358053Y-40552309D01*
X52361203Y-40531074D01*
X52366419Y-40510250D01*
X52373651Y-40490038D01*
X52382830Y-40470632D01*
X52393866Y-40452219D01*
X52406654Y-40434976D01*
X52421070Y-40419070D01*
X52436976Y-40404654D01*
X52454219Y-40391866D01*
X52472632Y-40380830D01*
X52492038Y-40371651D01*
X52512250Y-40364419D01*
X52533074Y-40359203D01*
X52554309Y-40356053D01*
X52575750Y-40355000D01*
X53088250Y-40355000D01*
X53109691Y-40356053D01*
X53109691Y-40356053D01*
G37*
D16*
X52832000Y-40792500D03*
D14*
G36*
X53109691Y-38781053D02*
G01*
X53130926Y-38784203D01*
X53151750Y-38789419D01*
X53171962Y-38796651D01*
X53191368Y-38805830D01*
X53209781Y-38816866D01*
X53227024Y-38829654D01*
X53242930Y-38844070D01*
X53257346Y-38859976D01*
X53270134Y-38877219D01*
X53281170Y-38895632D01*
X53290349Y-38915038D01*
X53297581Y-38935250D01*
X53302797Y-38956074D01*
X53305947Y-38977309D01*
X53307000Y-38998750D01*
X53307000Y-39436250D01*
X53305947Y-39457691D01*
X53302797Y-39478926D01*
X53297581Y-39499750D01*
X53290349Y-39519962D01*
X53281170Y-39539368D01*
X53270134Y-39557781D01*
X53257346Y-39575024D01*
X53242930Y-39590930D01*
X53227024Y-39605346D01*
X53209781Y-39618134D01*
X53191368Y-39629170D01*
X53171962Y-39638349D01*
X53151750Y-39645581D01*
X53130926Y-39650797D01*
X53109691Y-39653947D01*
X53088250Y-39655000D01*
X52575750Y-39655000D01*
X52554309Y-39653947D01*
X52533074Y-39650797D01*
X52512250Y-39645581D01*
X52492038Y-39638349D01*
X52472632Y-39629170D01*
X52454219Y-39618134D01*
X52436976Y-39605346D01*
X52421070Y-39590930D01*
X52406654Y-39575024D01*
X52393866Y-39557781D01*
X52382830Y-39539368D01*
X52373651Y-39519962D01*
X52366419Y-39499750D01*
X52361203Y-39478926D01*
X52358053Y-39457691D01*
X52357000Y-39436250D01*
X52357000Y-38998750D01*
X52358053Y-38977309D01*
X52361203Y-38956074D01*
X52366419Y-38935250D01*
X52373651Y-38915038D01*
X52382830Y-38895632D01*
X52393866Y-38877219D01*
X52406654Y-38859976D01*
X52421070Y-38844070D01*
X52436976Y-38829654D01*
X52454219Y-38816866D01*
X52472632Y-38805830D01*
X52492038Y-38796651D01*
X52512250Y-38789419D01*
X52533074Y-38784203D01*
X52554309Y-38781053D01*
X52575750Y-38780000D01*
X53088250Y-38780000D01*
X53109691Y-38781053D01*
X53109691Y-38781053D01*
G37*
D16*
X52832000Y-39217500D03*
D14*
G36*
X52665691Y-33181053D02*
G01*
X52686926Y-33184203D01*
X52707750Y-33189419D01*
X52727962Y-33196651D01*
X52747368Y-33205830D01*
X52765781Y-33216866D01*
X52783024Y-33229654D01*
X52798930Y-33244070D01*
X52813346Y-33259976D01*
X52826134Y-33277219D01*
X52837170Y-33295632D01*
X52846349Y-33315038D01*
X52853581Y-33335250D01*
X52858797Y-33356074D01*
X52861947Y-33377309D01*
X52863000Y-33398750D01*
X52863000Y-33911250D01*
X52861947Y-33932691D01*
X52858797Y-33953926D01*
X52853581Y-33974750D01*
X52846349Y-33994962D01*
X52837170Y-34014368D01*
X52826134Y-34032781D01*
X52813346Y-34050024D01*
X52798930Y-34065930D01*
X52783024Y-34080346D01*
X52765781Y-34093134D01*
X52747368Y-34104170D01*
X52727962Y-34113349D01*
X52707750Y-34120581D01*
X52686926Y-34125797D01*
X52665691Y-34128947D01*
X52644250Y-34130000D01*
X52206750Y-34130000D01*
X52185309Y-34128947D01*
X52164074Y-34125797D01*
X52143250Y-34120581D01*
X52123038Y-34113349D01*
X52103632Y-34104170D01*
X52085219Y-34093134D01*
X52067976Y-34080346D01*
X52052070Y-34065930D01*
X52037654Y-34050024D01*
X52024866Y-34032781D01*
X52013830Y-34014368D01*
X52004651Y-33994962D01*
X51997419Y-33974750D01*
X51992203Y-33953926D01*
X51989053Y-33932691D01*
X51988000Y-33911250D01*
X51988000Y-33398750D01*
X51989053Y-33377309D01*
X51992203Y-33356074D01*
X51997419Y-33335250D01*
X52004651Y-33315038D01*
X52013830Y-33295632D01*
X52024866Y-33277219D01*
X52037654Y-33259976D01*
X52052070Y-33244070D01*
X52067976Y-33229654D01*
X52085219Y-33216866D01*
X52103632Y-33205830D01*
X52123038Y-33196651D01*
X52143250Y-33189419D01*
X52164074Y-33184203D01*
X52185309Y-33181053D01*
X52206750Y-33180000D01*
X52644250Y-33180000D01*
X52665691Y-33181053D01*
X52665691Y-33181053D01*
G37*
D16*
X52425500Y-33655000D03*
D14*
G36*
X54240691Y-33181053D02*
G01*
X54261926Y-33184203D01*
X54282750Y-33189419D01*
X54302962Y-33196651D01*
X54322368Y-33205830D01*
X54340781Y-33216866D01*
X54358024Y-33229654D01*
X54373930Y-33244070D01*
X54388346Y-33259976D01*
X54401134Y-33277219D01*
X54412170Y-33295632D01*
X54421349Y-33315038D01*
X54428581Y-33335250D01*
X54433797Y-33356074D01*
X54436947Y-33377309D01*
X54438000Y-33398750D01*
X54438000Y-33911250D01*
X54436947Y-33932691D01*
X54433797Y-33953926D01*
X54428581Y-33974750D01*
X54421349Y-33994962D01*
X54412170Y-34014368D01*
X54401134Y-34032781D01*
X54388346Y-34050024D01*
X54373930Y-34065930D01*
X54358024Y-34080346D01*
X54340781Y-34093134D01*
X54322368Y-34104170D01*
X54302962Y-34113349D01*
X54282750Y-34120581D01*
X54261926Y-34125797D01*
X54240691Y-34128947D01*
X54219250Y-34130000D01*
X53781750Y-34130000D01*
X53760309Y-34128947D01*
X53739074Y-34125797D01*
X53718250Y-34120581D01*
X53698038Y-34113349D01*
X53678632Y-34104170D01*
X53660219Y-34093134D01*
X53642976Y-34080346D01*
X53627070Y-34065930D01*
X53612654Y-34050024D01*
X53599866Y-34032781D01*
X53588830Y-34014368D01*
X53579651Y-33994962D01*
X53572419Y-33974750D01*
X53567203Y-33953926D01*
X53564053Y-33932691D01*
X53563000Y-33911250D01*
X53563000Y-33398750D01*
X53564053Y-33377309D01*
X53567203Y-33356074D01*
X53572419Y-33335250D01*
X53579651Y-33315038D01*
X53588830Y-33295632D01*
X53599866Y-33277219D01*
X53612654Y-33259976D01*
X53627070Y-33244070D01*
X53642976Y-33229654D01*
X53660219Y-33216866D01*
X53678632Y-33205830D01*
X53698038Y-33196651D01*
X53718250Y-33189419D01*
X53739074Y-33184203D01*
X53760309Y-33181053D01*
X53781750Y-33180000D01*
X54219250Y-33180000D01*
X54240691Y-33181053D01*
X54240691Y-33181053D01*
G37*
D16*
X54000500Y-33655000D03*
D14*
G36*
X54240691Y-32038053D02*
G01*
X54261926Y-32041203D01*
X54282750Y-32046419D01*
X54302962Y-32053651D01*
X54322368Y-32062830D01*
X54340781Y-32073866D01*
X54358024Y-32086654D01*
X54373930Y-32101070D01*
X54388346Y-32116976D01*
X54401134Y-32134219D01*
X54412170Y-32152632D01*
X54421349Y-32172038D01*
X54428581Y-32192250D01*
X54433797Y-32213074D01*
X54436947Y-32234309D01*
X54438000Y-32255750D01*
X54438000Y-32768250D01*
X54436947Y-32789691D01*
X54433797Y-32810926D01*
X54428581Y-32831750D01*
X54421349Y-32851962D01*
X54412170Y-32871368D01*
X54401134Y-32889781D01*
X54388346Y-32907024D01*
X54373930Y-32922930D01*
X54358024Y-32937346D01*
X54340781Y-32950134D01*
X54322368Y-32961170D01*
X54302962Y-32970349D01*
X54282750Y-32977581D01*
X54261926Y-32982797D01*
X54240691Y-32985947D01*
X54219250Y-32987000D01*
X53781750Y-32987000D01*
X53760309Y-32985947D01*
X53739074Y-32982797D01*
X53718250Y-32977581D01*
X53698038Y-32970349D01*
X53678632Y-32961170D01*
X53660219Y-32950134D01*
X53642976Y-32937346D01*
X53627070Y-32922930D01*
X53612654Y-32907024D01*
X53599866Y-32889781D01*
X53588830Y-32871368D01*
X53579651Y-32851962D01*
X53572419Y-32831750D01*
X53567203Y-32810926D01*
X53564053Y-32789691D01*
X53563000Y-32768250D01*
X53563000Y-32255750D01*
X53564053Y-32234309D01*
X53567203Y-32213074D01*
X53572419Y-32192250D01*
X53579651Y-32172038D01*
X53588830Y-32152632D01*
X53599866Y-32134219D01*
X53612654Y-32116976D01*
X53627070Y-32101070D01*
X53642976Y-32086654D01*
X53660219Y-32073866D01*
X53678632Y-32062830D01*
X53698038Y-32053651D01*
X53718250Y-32046419D01*
X53739074Y-32041203D01*
X53760309Y-32038053D01*
X53781750Y-32037000D01*
X54219250Y-32037000D01*
X54240691Y-32038053D01*
X54240691Y-32038053D01*
G37*
D16*
X54000500Y-32512000D03*
D14*
G36*
X52665691Y-32038053D02*
G01*
X52686926Y-32041203D01*
X52707750Y-32046419D01*
X52727962Y-32053651D01*
X52747368Y-32062830D01*
X52765781Y-32073866D01*
X52783024Y-32086654D01*
X52798930Y-32101070D01*
X52813346Y-32116976D01*
X52826134Y-32134219D01*
X52837170Y-32152632D01*
X52846349Y-32172038D01*
X52853581Y-32192250D01*
X52858797Y-32213074D01*
X52861947Y-32234309D01*
X52863000Y-32255750D01*
X52863000Y-32768250D01*
X52861947Y-32789691D01*
X52858797Y-32810926D01*
X52853581Y-32831750D01*
X52846349Y-32851962D01*
X52837170Y-32871368D01*
X52826134Y-32889781D01*
X52813346Y-32907024D01*
X52798930Y-32922930D01*
X52783024Y-32937346D01*
X52765781Y-32950134D01*
X52747368Y-32961170D01*
X52727962Y-32970349D01*
X52707750Y-32977581D01*
X52686926Y-32982797D01*
X52665691Y-32985947D01*
X52644250Y-32987000D01*
X52206750Y-32987000D01*
X52185309Y-32985947D01*
X52164074Y-32982797D01*
X52143250Y-32977581D01*
X52123038Y-32970349D01*
X52103632Y-32961170D01*
X52085219Y-32950134D01*
X52067976Y-32937346D01*
X52052070Y-32922930D01*
X52037654Y-32907024D01*
X52024866Y-32889781D01*
X52013830Y-32871368D01*
X52004651Y-32851962D01*
X51997419Y-32831750D01*
X51992203Y-32810926D01*
X51989053Y-32789691D01*
X51988000Y-32768250D01*
X51988000Y-32255750D01*
X51989053Y-32234309D01*
X51992203Y-32213074D01*
X51997419Y-32192250D01*
X52004651Y-32172038D01*
X52013830Y-32152632D01*
X52024866Y-32134219D01*
X52037654Y-32116976D01*
X52052070Y-32101070D01*
X52067976Y-32086654D01*
X52085219Y-32073866D01*
X52103632Y-32062830D01*
X52123038Y-32053651D01*
X52143250Y-32046419D01*
X52164074Y-32041203D01*
X52185309Y-32038053D01*
X52206750Y-32037000D01*
X52644250Y-32037000D01*
X52665691Y-32038053D01*
X52665691Y-32038053D01*
G37*
D16*
X52425500Y-32512000D03*
D14*
G36*
X52665691Y-34324053D02*
G01*
X52686926Y-34327203D01*
X52707750Y-34332419D01*
X52727962Y-34339651D01*
X52747368Y-34348830D01*
X52765781Y-34359866D01*
X52783024Y-34372654D01*
X52798930Y-34387070D01*
X52813346Y-34402976D01*
X52826134Y-34420219D01*
X52837170Y-34438632D01*
X52846349Y-34458038D01*
X52853581Y-34478250D01*
X52858797Y-34499074D01*
X52861947Y-34520309D01*
X52863000Y-34541750D01*
X52863000Y-35054250D01*
X52861947Y-35075691D01*
X52858797Y-35096926D01*
X52853581Y-35117750D01*
X52846349Y-35137962D01*
X52837170Y-35157368D01*
X52826134Y-35175781D01*
X52813346Y-35193024D01*
X52798930Y-35208930D01*
X52783024Y-35223346D01*
X52765781Y-35236134D01*
X52747368Y-35247170D01*
X52727962Y-35256349D01*
X52707750Y-35263581D01*
X52686926Y-35268797D01*
X52665691Y-35271947D01*
X52644250Y-35273000D01*
X52206750Y-35273000D01*
X52185309Y-35271947D01*
X52164074Y-35268797D01*
X52143250Y-35263581D01*
X52123038Y-35256349D01*
X52103632Y-35247170D01*
X52085219Y-35236134D01*
X52067976Y-35223346D01*
X52052070Y-35208930D01*
X52037654Y-35193024D01*
X52024866Y-35175781D01*
X52013830Y-35157368D01*
X52004651Y-35137962D01*
X51997419Y-35117750D01*
X51992203Y-35096926D01*
X51989053Y-35075691D01*
X51988000Y-35054250D01*
X51988000Y-34541750D01*
X51989053Y-34520309D01*
X51992203Y-34499074D01*
X51997419Y-34478250D01*
X52004651Y-34458038D01*
X52013830Y-34438632D01*
X52024866Y-34420219D01*
X52037654Y-34402976D01*
X52052070Y-34387070D01*
X52067976Y-34372654D01*
X52085219Y-34359866D01*
X52103632Y-34348830D01*
X52123038Y-34339651D01*
X52143250Y-34332419D01*
X52164074Y-34327203D01*
X52185309Y-34324053D01*
X52206750Y-34323000D01*
X52644250Y-34323000D01*
X52665691Y-34324053D01*
X52665691Y-34324053D01*
G37*
D16*
X52425500Y-34798000D03*
D14*
G36*
X54240691Y-34324053D02*
G01*
X54261926Y-34327203D01*
X54282750Y-34332419D01*
X54302962Y-34339651D01*
X54322368Y-34348830D01*
X54340781Y-34359866D01*
X54358024Y-34372654D01*
X54373930Y-34387070D01*
X54388346Y-34402976D01*
X54401134Y-34420219D01*
X54412170Y-34438632D01*
X54421349Y-34458038D01*
X54428581Y-34478250D01*
X54433797Y-34499074D01*
X54436947Y-34520309D01*
X54438000Y-34541750D01*
X54438000Y-35054250D01*
X54436947Y-35075691D01*
X54433797Y-35096926D01*
X54428581Y-35117750D01*
X54421349Y-35137962D01*
X54412170Y-35157368D01*
X54401134Y-35175781D01*
X54388346Y-35193024D01*
X54373930Y-35208930D01*
X54358024Y-35223346D01*
X54340781Y-35236134D01*
X54322368Y-35247170D01*
X54302962Y-35256349D01*
X54282750Y-35263581D01*
X54261926Y-35268797D01*
X54240691Y-35271947D01*
X54219250Y-35273000D01*
X53781750Y-35273000D01*
X53760309Y-35271947D01*
X53739074Y-35268797D01*
X53718250Y-35263581D01*
X53698038Y-35256349D01*
X53678632Y-35247170D01*
X53660219Y-35236134D01*
X53642976Y-35223346D01*
X53627070Y-35208930D01*
X53612654Y-35193024D01*
X53599866Y-35175781D01*
X53588830Y-35157368D01*
X53579651Y-35137962D01*
X53572419Y-35117750D01*
X53567203Y-35096926D01*
X53564053Y-35075691D01*
X53563000Y-35054250D01*
X53563000Y-34541750D01*
X53564053Y-34520309D01*
X53567203Y-34499074D01*
X53572419Y-34478250D01*
X53579651Y-34458038D01*
X53588830Y-34438632D01*
X53599866Y-34420219D01*
X53612654Y-34402976D01*
X53627070Y-34387070D01*
X53642976Y-34372654D01*
X53660219Y-34359866D01*
X53678632Y-34348830D01*
X53698038Y-34339651D01*
X53718250Y-34332419D01*
X53739074Y-34327203D01*
X53760309Y-34324053D01*
X53781750Y-34323000D01*
X54219250Y-34323000D01*
X54240691Y-34324053D01*
X54240691Y-34324053D01*
G37*
D16*
X54000500Y-34798000D03*
D14*
G36*
X38060691Y-31022053D02*
G01*
X38081926Y-31025203D01*
X38102750Y-31030419D01*
X38122962Y-31037651D01*
X38142368Y-31046830D01*
X38160781Y-31057866D01*
X38178024Y-31070654D01*
X38193930Y-31085070D01*
X38208346Y-31100976D01*
X38221134Y-31118219D01*
X38232170Y-31136632D01*
X38241349Y-31156038D01*
X38248581Y-31176250D01*
X38253797Y-31197074D01*
X38256947Y-31218309D01*
X38258000Y-31239750D01*
X38258000Y-31752250D01*
X38256947Y-31773691D01*
X38253797Y-31794926D01*
X38248581Y-31815750D01*
X38241349Y-31835962D01*
X38232170Y-31855368D01*
X38221134Y-31873781D01*
X38208346Y-31891024D01*
X38193930Y-31906930D01*
X38178024Y-31921346D01*
X38160781Y-31934134D01*
X38142368Y-31945170D01*
X38122962Y-31954349D01*
X38102750Y-31961581D01*
X38081926Y-31966797D01*
X38060691Y-31969947D01*
X38039250Y-31971000D01*
X37601750Y-31971000D01*
X37580309Y-31969947D01*
X37559074Y-31966797D01*
X37538250Y-31961581D01*
X37518038Y-31954349D01*
X37498632Y-31945170D01*
X37480219Y-31934134D01*
X37462976Y-31921346D01*
X37447070Y-31906930D01*
X37432654Y-31891024D01*
X37419866Y-31873781D01*
X37408830Y-31855368D01*
X37399651Y-31835962D01*
X37392419Y-31815750D01*
X37387203Y-31794926D01*
X37384053Y-31773691D01*
X37383000Y-31752250D01*
X37383000Y-31239750D01*
X37384053Y-31218309D01*
X37387203Y-31197074D01*
X37392419Y-31176250D01*
X37399651Y-31156038D01*
X37408830Y-31136632D01*
X37419866Y-31118219D01*
X37432654Y-31100976D01*
X37447070Y-31085070D01*
X37462976Y-31070654D01*
X37480219Y-31057866D01*
X37498632Y-31046830D01*
X37518038Y-31037651D01*
X37538250Y-31030419D01*
X37559074Y-31025203D01*
X37580309Y-31022053D01*
X37601750Y-31021000D01*
X38039250Y-31021000D01*
X38060691Y-31022053D01*
X38060691Y-31022053D01*
G37*
D16*
X37820500Y-31496000D03*
D14*
G36*
X39635691Y-31022053D02*
G01*
X39656926Y-31025203D01*
X39677750Y-31030419D01*
X39697962Y-31037651D01*
X39717368Y-31046830D01*
X39735781Y-31057866D01*
X39753024Y-31070654D01*
X39768930Y-31085070D01*
X39783346Y-31100976D01*
X39796134Y-31118219D01*
X39807170Y-31136632D01*
X39816349Y-31156038D01*
X39823581Y-31176250D01*
X39828797Y-31197074D01*
X39831947Y-31218309D01*
X39833000Y-31239750D01*
X39833000Y-31752250D01*
X39831947Y-31773691D01*
X39828797Y-31794926D01*
X39823581Y-31815750D01*
X39816349Y-31835962D01*
X39807170Y-31855368D01*
X39796134Y-31873781D01*
X39783346Y-31891024D01*
X39768930Y-31906930D01*
X39753024Y-31921346D01*
X39735781Y-31934134D01*
X39717368Y-31945170D01*
X39697962Y-31954349D01*
X39677750Y-31961581D01*
X39656926Y-31966797D01*
X39635691Y-31969947D01*
X39614250Y-31971000D01*
X39176750Y-31971000D01*
X39155309Y-31969947D01*
X39134074Y-31966797D01*
X39113250Y-31961581D01*
X39093038Y-31954349D01*
X39073632Y-31945170D01*
X39055219Y-31934134D01*
X39037976Y-31921346D01*
X39022070Y-31906930D01*
X39007654Y-31891024D01*
X38994866Y-31873781D01*
X38983830Y-31855368D01*
X38974651Y-31835962D01*
X38967419Y-31815750D01*
X38962203Y-31794926D01*
X38959053Y-31773691D01*
X38958000Y-31752250D01*
X38958000Y-31239750D01*
X38959053Y-31218309D01*
X38962203Y-31197074D01*
X38967419Y-31176250D01*
X38974651Y-31156038D01*
X38983830Y-31136632D01*
X38994866Y-31118219D01*
X39007654Y-31100976D01*
X39022070Y-31085070D01*
X39037976Y-31070654D01*
X39055219Y-31057866D01*
X39073632Y-31046830D01*
X39093038Y-31037651D01*
X39113250Y-31030419D01*
X39134074Y-31025203D01*
X39155309Y-31022053D01*
X39176750Y-31021000D01*
X39614250Y-31021000D01*
X39635691Y-31022053D01*
X39635691Y-31022053D01*
G37*
D16*
X39395500Y-31496000D03*
D24*
X28845000Y-41925000D03*
X29345000Y-41925000D03*
X29845000Y-41925000D03*
X30345000Y-41925000D03*
X30845000Y-41925000D03*
X30845000Y-38085000D03*
X30345000Y-38085000D03*
X29845000Y-38085000D03*
X29345000Y-38085000D03*
X28845000Y-38085000D03*
D25*
X30420000Y-39355000D03*
X29270000Y-39355000D03*
X30420000Y-40655000D03*
X29270000Y-40655000D03*
X39430000Y-40655000D03*
X40580000Y-40655000D03*
X39430000Y-39355000D03*
X40580000Y-39355000D03*
D24*
X39005000Y-38085000D03*
X39505000Y-38085000D03*
X40005000Y-38085000D03*
X40505000Y-38085000D03*
X41005000Y-38085000D03*
X41005000Y-41925000D03*
X40505000Y-41925000D03*
X40005000Y-41925000D03*
X39505000Y-41925000D03*
X39005000Y-41925000D03*
X49165000Y-41920000D03*
X49665000Y-41920000D03*
X50165000Y-41920000D03*
X50665000Y-41920000D03*
X51165000Y-41920000D03*
X51165000Y-38080000D03*
X50665000Y-38080000D03*
X50165000Y-38080000D03*
X49665000Y-38080000D03*
X49165000Y-38080000D03*
D25*
X50740000Y-39350000D03*
X49590000Y-39350000D03*
X50740000Y-40650000D03*
X49590000Y-40650000D03*
D26*
X17018000Y-46576000D03*
D14*
G36*
X18118000Y-46151000D02*
G01*
X17518000Y-47001000D01*
X16518000Y-47001000D01*
X15918000Y-46151000D01*
X18118000Y-46151000D01*
X18118000Y-46151000D01*
G37*
D27*
X18518000Y-42429000D03*
D28*
X17018000Y-42575500D03*
D27*
X15518000Y-42429000D03*
D29*
X17018000Y-45242500D03*
D30*
X17018000Y-43832800D03*
D14*
G36*
X15918000Y-44332800D02*
G01*
X16618000Y-43332800D01*
X17418000Y-43332800D01*
X18118000Y-44332800D01*
X15918000Y-44332800D01*
X15918000Y-44332800D01*
G37*
G36*
X31773691Y-47595053D02*
G01*
X31794926Y-47598203D01*
X31815750Y-47603419D01*
X31835962Y-47610651D01*
X31855368Y-47619830D01*
X31873781Y-47630866D01*
X31891024Y-47643654D01*
X31906930Y-47658070D01*
X31921346Y-47673976D01*
X31934134Y-47691219D01*
X31945170Y-47709632D01*
X31954349Y-47729038D01*
X31961581Y-47749250D01*
X31966797Y-47770074D01*
X31969947Y-47791309D01*
X31971000Y-47812750D01*
X31971000Y-48250250D01*
X31969947Y-48271691D01*
X31966797Y-48292926D01*
X31961581Y-48313750D01*
X31954349Y-48333962D01*
X31945170Y-48353368D01*
X31934134Y-48371781D01*
X31921346Y-48389024D01*
X31906930Y-48404930D01*
X31891024Y-48419346D01*
X31873781Y-48432134D01*
X31855368Y-48443170D01*
X31835962Y-48452349D01*
X31815750Y-48459581D01*
X31794926Y-48464797D01*
X31773691Y-48467947D01*
X31752250Y-48469000D01*
X31239750Y-48469000D01*
X31218309Y-48467947D01*
X31197074Y-48464797D01*
X31176250Y-48459581D01*
X31156038Y-48452349D01*
X31136632Y-48443170D01*
X31118219Y-48432134D01*
X31100976Y-48419346D01*
X31085070Y-48404930D01*
X31070654Y-48389024D01*
X31057866Y-48371781D01*
X31046830Y-48353368D01*
X31037651Y-48333962D01*
X31030419Y-48313750D01*
X31025203Y-48292926D01*
X31022053Y-48271691D01*
X31021000Y-48250250D01*
X31021000Y-47812750D01*
X31022053Y-47791309D01*
X31025203Y-47770074D01*
X31030419Y-47749250D01*
X31037651Y-47729038D01*
X31046830Y-47709632D01*
X31057866Y-47691219D01*
X31070654Y-47673976D01*
X31085070Y-47658070D01*
X31100976Y-47643654D01*
X31118219Y-47630866D01*
X31136632Y-47619830D01*
X31156038Y-47610651D01*
X31176250Y-47603419D01*
X31197074Y-47598203D01*
X31218309Y-47595053D01*
X31239750Y-47594000D01*
X31752250Y-47594000D01*
X31773691Y-47595053D01*
X31773691Y-47595053D01*
G37*
D16*
X31496000Y-48031500D03*
D14*
G36*
X31773691Y-46020053D02*
G01*
X31794926Y-46023203D01*
X31815750Y-46028419D01*
X31835962Y-46035651D01*
X31855368Y-46044830D01*
X31873781Y-46055866D01*
X31891024Y-46068654D01*
X31906930Y-46083070D01*
X31921346Y-46098976D01*
X31934134Y-46116219D01*
X31945170Y-46134632D01*
X31954349Y-46154038D01*
X31961581Y-46174250D01*
X31966797Y-46195074D01*
X31969947Y-46216309D01*
X31971000Y-46237750D01*
X31971000Y-46675250D01*
X31969947Y-46696691D01*
X31966797Y-46717926D01*
X31961581Y-46738750D01*
X31954349Y-46758962D01*
X31945170Y-46778368D01*
X31934134Y-46796781D01*
X31921346Y-46814024D01*
X31906930Y-46829930D01*
X31891024Y-46844346D01*
X31873781Y-46857134D01*
X31855368Y-46868170D01*
X31835962Y-46877349D01*
X31815750Y-46884581D01*
X31794926Y-46889797D01*
X31773691Y-46892947D01*
X31752250Y-46894000D01*
X31239750Y-46894000D01*
X31218309Y-46892947D01*
X31197074Y-46889797D01*
X31176250Y-46884581D01*
X31156038Y-46877349D01*
X31136632Y-46868170D01*
X31118219Y-46857134D01*
X31100976Y-46844346D01*
X31085070Y-46829930D01*
X31070654Y-46814024D01*
X31057866Y-46796781D01*
X31046830Y-46778368D01*
X31037651Y-46758962D01*
X31030419Y-46738750D01*
X31025203Y-46717926D01*
X31022053Y-46696691D01*
X31021000Y-46675250D01*
X31021000Y-46237750D01*
X31022053Y-46216309D01*
X31025203Y-46195074D01*
X31030419Y-46174250D01*
X31037651Y-46154038D01*
X31046830Y-46134632D01*
X31057866Y-46116219D01*
X31070654Y-46098976D01*
X31085070Y-46083070D01*
X31100976Y-46068654D01*
X31118219Y-46055866D01*
X31136632Y-46044830D01*
X31156038Y-46035651D01*
X31176250Y-46028419D01*
X31197074Y-46023203D01*
X31218309Y-46020053D01*
X31239750Y-46019000D01*
X31752250Y-46019000D01*
X31773691Y-46020053D01*
X31773691Y-46020053D01*
G37*
D16*
X31496000Y-46456500D03*
D14*
G36*
X27201691Y-46020053D02*
G01*
X27222926Y-46023203D01*
X27243750Y-46028419D01*
X27263962Y-46035651D01*
X27283368Y-46044830D01*
X27301781Y-46055866D01*
X27319024Y-46068654D01*
X27334930Y-46083070D01*
X27349346Y-46098976D01*
X27362134Y-46116219D01*
X27373170Y-46134632D01*
X27382349Y-46154038D01*
X27389581Y-46174250D01*
X27394797Y-46195074D01*
X27397947Y-46216309D01*
X27399000Y-46237750D01*
X27399000Y-46675250D01*
X27397947Y-46696691D01*
X27394797Y-46717926D01*
X27389581Y-46738750D01*
X27382349Y-46758962D01*
X27373170Y-46778368D01*
X27362134Y-46796781D01*
X27349346Y-46814024D01*
X27334930Y-46829930D01*
X27319024Y-46844346D01*
X27301781Y-46857134D01*
X27283368Y-46868170D01*
X27263962Y-46877349D01*
X27243750Y-46884581D01*
X27222926Y-46889797D01*
X27201691Y-46892947D01*
X27180250Y-46894000D01*
X26667750Y-46894000D01*
X26646309Y-46892947D01*
X26625074Y-46889797D01*
X26604250Y-46884581D01*
X26584038Y-46877349D01*
X26564632Y-46868170D01*
X26546219Y-46857134D01*
X26528976Y-46844346D01*
X26513070Y-46829930D01*
X26498654Y-46814024D01*
X26485866Y-46796781D01*
X26474830Y-46778368D01*
X26465651Y-46758962D01*
X26458419Y-46738750D01*
X26453203Y-46717926D01*
X26450053Y-46696691D01*
X26449000Y-46675250D01*
X26449000Y-46237750D01*
X26450053Y-46216309D01*
X26453203Y-46195074D01*
X26458419Y-46174250D01*
X26465651Y-46154038D01*
X26474830Y-46134632D01*
X26485866Y-46116219D01*
X26498654Y-46098976D01*
X26513070Y-46083070D01*
X26528976Y-46068654D01*
X26546219Y-46055866D01*
X26564632Y-46044830D01*
X26584038Y-46035651D01*
X26604250Y-46028419D01*
X26625074Y-46023203D01*
X26646309Y-46020053D01*
X26667750Y-46019000D01*
X27180250Y-46019000D01*
X27201691Y-46020053D01*
X27201691Y-46020053D01*
G37*
D16*
X26924000Y-46456500D03*
D14*
G36*
X27201691Y-47595053D02*
G01*
X27222926Y-47598203D01*
X27243750Y-47603419D01*
X27263962Y-47610651D01*
X27283368Y-47619830D01*
X27301781Y-47630866D01*
X27319024Y-47643654D01*
X27334930Y-47658070D01*
X27349346Y-47673976D01*
X27362134Y-47691219D01*
X27373170Y-47709632D01*
X27382349Y-47729038D01*
X27389581Y-47749250D01*
X27394797Y-47770074D01*
X27397947Y-47791309D01*
X27399000Y-47812750D01*
X27399000Y-48250250D01*
X27397947Y-48271691D01*
X27394797Y-48292926D01*
X27389581Y-48313750D01*
X27382349Y-48333962D01*
X27373170Y-48353368D01*
X27362134Y-48371781D01*
X27349346Y-48389024D01*
X27334930Y-48404930D01*
X27319024Y-48419346D01*
X27301781Y-48432134D01*
X27283368Y-48443170D01*
X27263962Y-48452349D01*
X27243750Y-48459581D01*
X27222926Y-48464797D01*
X27201691Y-48467947D01*
X27180250Y-48469000D01*
X26667750Y-48469000D01*
X26646309Y-48467947D01*
X26625074Y-48464797D01*
X26604250Y-48459581D01*
X26584038Y-48452349D01*
X26564632Y-48443170D01*
X26546219Y-48432134D01*
X26528976Y-48419346D01*
X26513070Y-48404930D01*
X26498654Y-48389024D01*
X26485866Y-48371781D01*
X26474830Y-48353368D01*
X26465651Y-48333962D01*
X26458419Y-48313750D01*
X26453203Y-48292926D01*
X26450053Y-48271691D01*
X26449000Y-48250250D01*
X26449000Y-47812750D01*
X26450053Y-47791309D01*
X26453203Y-47770074D01*
X26458419Y-47749250D01*
X26465651Y-47729038D01*
X26474830Y-47709632D01*
X26485866Y-47691219D01*
X26498654Y-47673976D01*
X26513070Y-47658070D01*
X26528976Y-47643654D01*
X26546219Y-47630866D01*
X26564632Y-47619830D01*
X26584038Y-47610651D01*
X26604250Y-47603419D01*
X26625074Y-47598203D01*
X26646309Y-47595053D01*
X26667750Y-47594000D01*
X27180250Y-47594000D01*
X27201691Y-47595053D01*
X27201691Y-47595053D01*
G37*
D16*
X26924000Y-48031500D03*
D14*
G36*
X41933691Y-47595053D02*
G01*
X41954926Y-47598203D01*
X41975750Y-47603419D01*
X41995962Y-47610651D01*
X42015368Y-47619830D01*
X42033781Y-47630866D01*
X42051024Y-47643654D01*
X42066930Y-47658070D01*
X42081346Y-47673976D01*
X42094134Y-47691219D01*
X42105170Y-47709632D01*
X42114349Y-47729038D01*
X42121581Y-47749250D01*
X42126797Y-47770074D01*
X42129947Y-47791309D01*
X42131000Y-47812750D01*
X42131000Y-48250250D01*
X42129947Y-48271691D01*
X42126797Y-48292926D01*
X42121581Y-48313750D01*
X42114349Y-48333962D01*
X42105170Y-48353368D01*
X42094134Y-48371781D01*
X42081346Y-48389024D01*
X42066930Y-48404930D01*
X42051024Y-48419346D01*
X42033781Y-48432134D01*
X42015368Y-48443170D01*
X41995962Y-48452349D01*
X41975750Y-48459581D01*
X41954926Y-48464797D01*
X41933691Y-48467947D01*
X41912250Y-48469000D01*
X41399750Y-48469000D01*
X41378309Y-48467947D01*
X41357074Y-48464797D01*
X41336250Y-48459581D01*
X41316038Y-48452349D01*
X41296632Y-48443170D01*
X41278219Y-48432134D01*
X41260976Y-48419346D01*
X41245070Y-48404930D01*
X41230654Y-48389024D01*
X41217866Y-48371781D01*
X41206830Y-48353368D01*
X41197651Y-48333962D01*
X41190419Y-48313750D01*
X41185203Y-48292926D01*
X41182053Y-48271691D01*
X41181000Y-48250250D01*
X41181000Y-47812750D01*
X41182053Y-47791309D01*
X41185203Y-47770074D01*
X41190419Y-47749250D01*
X41197651Y-47729038D01*
X41206830Y-47709632D01*
X41217866Y-47691219D01*
X41230654Y-47673976D01*
X41245070Y-47658070D01*
X41260976Y-47643654D01*
X41278219Y-47630866D01*
X41296632Y-47619830D01*
X41316038Y-47610651D01*
X41336250Y-47603419D01*
X41357074Y-47598203D01*
X41378309Y-47595053D01*
X41399750Y-47594000D01*
X41912250Y-47594000D01*
X41933691Y-47595053D01*
X41933691Y-47595053D01*
G37*
D16*
X41656000Y-48031500D03*
D14*
G36*
X41933691Y-46020053D02*
G01*
X41954926Y-46023203D01*
X41975750Y-46028419D01*
X41995962Y-46035651D01*
X42015368Y-46044830D01*
X42033781Y-46055866D01*
X42051024Y-46068654D01*
X42066930Y-46083070D01*
X42081346Y-46098976D01*
X42094134Y-46116219D01*
X42105170Y-46134632D01*
X42114349Y-46154038D01*
X42121581Y-46174250D01*
X42126797Y-46195074D01*
X42129947Y-46216309D01*
X42131000Y-46237750D01*
X42131000Y-46675250D01*
X42129947Y-46696691D01*
X42126797Y-46717926D01*
X42121581Y-46738750D01*
X42114349Y-46758962D01*
X42105170Y-46778368D01*
X42094134Y-46796781D01*
X42081346Y-46814024D01*
X42066930Y-46829930D01*
X42051024Y-46844346D01*
X42033781Y-46857134D01*
X42015368Y-46868170D01*
X41995962Y-46877349D01*
X41975750Y-46884581D01*
X41954926Y-46889797D01*
X41933691Y-46892947D01*
X41912250Y-46894000D01*
X41399750Y-46894000D01*
X41378309Y-46892947D01*
X41357074Y-46889797D01*
X41336250Y-46884581D01*
X41316038Y-46877349D01*
X41296632Y-46868170D01*
X41278219Y-46857134D01*
X41260976Y-46844346D01*
X41245070Y-46829930D01*
X41230654Y-46814024D01*
X41217866Y-46796781D01*
X41206830Y-46778368D01*
X41197651Y-46758962D01*
X41190419Y-46738750D01*
X41185203Y-46717926D01*
X41182053Y-46696691D01*
X41181000Y-46675250D01*
X41181000Y-46237750D01*
X41182053Y-46216309D01*
X41185203Y-46195074D01*
X41190419Y-46174250D01*
X41197651Y-46154038D01*
X41206830Y-46134632D01*
X41217866Y-46116219D01*
X41230654Y-46098976D01*
X41245070Y-46083070D01*
X41260976Y-46068654D01*
X41278219Y-46055866D01*
X41296632Y-46044830D01*
X41316038Y-46035651D01*
X41336250Y-46028419D01*
X41357074Y-46023203D01*
X41378309Y-46020053D01*
X41399750Y-46019000D01*
X41912250Y-46019000D01*
X41933691Y-46020053D01*
X41933691Y-46020053D01*
G37*
D16*
X41656000Y-46456500D03*
D14*
G36*
X37361691Y-46020053D02*
G01*
X37382926Y-46023203D01*
X37403750Y-46028419D01*
X37423962Y-46035651D01*
X37443368Y-46044830D01*
X37461781Y-46055866D01*
X37479024Y-46068654D01*
X37494930Y-46083070D01*
X37509346Y-46098976D01*
X37522134Y-46116219D01*
X37533170Y-46134632D01*
X37542349Y-46154038D01*
X37549581Y-46174250D01*
X37554797Y-46195074D01*
X37557947Y-46216309D01*
X37559000Y-46237750D01*
X37559000Y-46675250D01*
X37557947Y-46696691D01*
X37554797Y-46717926D01*
X37549581Y-46738750D01*
X37542349Y-46758962D01*
X37533170Y-46778368D01*
X37522134Y-46796781D01*
X37509346Y-46814024D01*
X37494930Y-46829930D01*
X37479024Y-46844346D01*
X37461781Y-46857134D01*
X37443368Y-46868170D01*
X37423962Y-46877349D01*
X37403750Y-46884581D01*
X37382926Y-46889797D01*
X37361691Y-46892947D01*
X37340250Y-46894000D01*
X36827750Y-46894000D01*
X36806309Y-46892947D01*
X36785074Y-46889797D01*
X36764250Y-46884581D01*
X36744038Y-46877349D01*
X36724632Y-46868170D01*
X36706219Y-46857134D01*
X36688976Y-46844346D01*
X36673070Y-46829930D01*
X36658654Y-46814024D01*
X36645866Y-46796781D01*
X36634830Y-46778368D01*
X36625651Y-46758962D01*
X36618419Y-46738750D01*
X36613203Y-46717926D01*
X36610053Y-46696691D01*
X36609000Y-46675250D01*
X36609000Y-46237750D01*
X36610053Y-46216309D01*
X36613203Y-46195074D01*
X36618419Y-46174250D01*
X36625651Y-46154038D01*
X36634830Y-46134632D01*
X36645866Y-46116219D01*
X36658654Y-46098976D01*
X36673070Y-46083070D01*
X36688976Y-46068654D01*
X36706219Y-46055866D01*
X36724632Y-46044830D01*
X36744038Y-46035651D01*
X36764250Y-46028419D01*
X36785074Y-46023203D01*
X36806309Y-46020053D01*
X36827750Y-46019000D01*
X37340250Y-46019000D01*
X37361691Y-46020053D01*
X37361691Y-46020053D01*
G37*
D16*
X37084000Y-46456500D03*
D14*
G36*
X37361691Y-47595053D02*
G01*
X37382926Y-47598203D01*
X37403750Y-47603419D01*
X37423962Y-47610651D01*
X37443368Y-47619830D01*
X37461781Y-47630866D01*
X37479024Y-47643654D01*
X37494930Y-47658070D01*
X37509346Y-47673976D01*
X37522134Y-47691219D01*
X37533170Y-47709632D01*
X37542349Y-47729038D01*
X37549581Y-47749250D01*
X37554797Y-47770074D01*
X37557947Y-47791309D01*
X37559000Y-47812750D01*
X37559000Y-48250250D01*
X37557947Y-48271691D01*
X37554797Y-48292926D01*
X37549581Y-48313750D01*
X37542349Y-48333962D01*
X37533170Y-48353368D01*
X37522134Y-48371781D01*
X37509346Y-48389024D01*
X37494930Y-48404930D01*
X37479024Y-48419346D01*
X37461781Y-48432134D01*
X37443368Y-48443170D01*
X37423962Y-48452349D01*
X37403750Y-48459581D01*
X37382926Y-48464797D01*
X37361691Y-48467947D01*
X37340250Y-48469000D01*
X36827750Y-48469000D01*
X36806309Y-48467947D01*
X36785074Y-48464797D01*
X36764250Y-48459581D01*
X36744038Y-48452349D01*
X36724632Y-48443170D01*
X36706219Y-48432134D01*
X36688976Y-48419346D01*
X36673070Y-48404930D01*
X36658654Y-48389024D01*
X36645866Y-48371781D01*
X36634830Y-48353368D01*
X36625651Y-48333962D01*
X36618419Y-48313750D01*
X36613203Y-48292926D01*
X36610053Y-48271691D01*
X36609000Y-48250250D01*
X36609000Y-47812750D01*
X36610053Y-47791309D01*
X36613203Y-47770074D01*
X36618419Y-47749250D01*
X36625651Y-47729038D01*
X36634830Y-47709632D01*
X36645866Y-47691219D01*
X36658654Y-47673976D01*
X36673070Y-47658070D01*
X36688976Y-47643654D01*
X36706219Y-47630866D01*
X36724632Y-47619830D01*
X36744038Y-47610651D01*
X36764250Y-47603419D01*
X36785074Y-47598203D01*
X36806309Y-47595053D01*
X36827750Y-47594000D01*
X37340250Y-47594000D01*
X37361691Y-47595053D01*
X37361691Y-47595053D01*
G37*
D16*
X37084000Y-48031500D03*
D14*
G36*
X52093691Y-47595053D02*
G01*
X52114926Y-47598203D01*
X52135750Y-47603419D01*
X52155962Y-47610651D01*
X52175368Y-47619830D01*
X52193781Y-47630866D01*
X52211024Y-47643654D01*
X52226930Y-47658070D01*
X52241346Y-47673976D01*
X52254134Y-47691219D01*
X52265170Y-47709632D01*
X52274349Y-47729038D01*
X52281581Y-47749250D01*
X52286797Y-47770074D01*
X52289947Y-47791309D01*
X52291000Y-47812750D01*
X52291000Y-48250250D01*
X52289947Y-48271691D01*
X52286797Y-48292926D01*
X52281581Y-48313750D01*
X52274349Y-48333962D01*
X52265170Y-48353368D01*
X52254134Y-48371781D01*
X52241346Y-48389024D01*
X52226930Y-48404930D01*
X52211024Y-48419346D01*
X52193781Y-48432134D01*
X52175368Y-48443170D01*
X52155962Y-48452349D01*
X52135750Y-48459581D01*
X52114926Y-48464797D01*
X52093691Y-48467947D01*
X52072250Y-48469000D01*
X51559750Y-48469000D01*
X51538309Y-48467947D01*
X51517074Y-48464797D01*
X51496250Y-48459581D01*
X51476038Y-48452349D01*
X51456632Y-48443170D01*
X51438219Y-48432134D01*
X51420976Y-48419346D01*
X51405070Y-48404930D01*
X51390654Y-48389024D01*
X51377866Y-48371781D01*
X51366830Y-48353368D01*
X51357651Y-48333962D01*
X51350419Y-48313750D01*
X51345203Y-48292926D01*
X51342053Y-48271691D01*
X51341000Y-48250250D01*
X51341000Y-47812750D01*
X51342053Y-47791309D01*
X51345203Y-47770074D01*
X51350419Y-47749250D01*
X51357651Y-47729038D01*
X51366830Y-47709632D01*
X51377866Y-47691219D01*
X51390654Y-47673976D01*
X51405070Y-47658070D01*
X51420976Y-47643654D01*
X51438219Y-47630866D01*
X51456632Y-47619830D01*
X51476038Y-47610651D01*
X51496250Y-47603419D01*
X51517074Y-47598203D01*
X51538309Y-47595053D01*
X51559750Y-47594000D01*
X52072250Y-47594000D01*
X52093691Y-47595053D01*
X52093691Y-47595053D01*
G37*
D16*
X51816000Y-48031500D03*
D14*
G36*
X52093691Y-46020053D02*
G01*
X52114926Y-46023203D01*
X52135750Y-46028419D01*
X52155962Y-46035651D01*
X52175368Y-46044830D01*
X52193781Y-46055866D01*
X52211024Y-46068654D01*
X52226930Y-46083070D01*
X52241346Y-46098976D01*
X52254134Y-46116219D01*
X52265170Y-46134632D01*
X52274349Y-46154038D01*
X52281581Y-46174250D01*
X52286797Y-46195074D01*
X52289947Y-46216309D01*
X52291000Y-46237750D01*
X52291000Y-46675250D01*
X52289947Y-46696691D01*
X52286797Y-46717926D01*
X52281581Y-46738750D01*
X52274349Y-46758962D01*
X52265170Y-46778368D01*
X52254134Y-46796781D01*
X52241346Y-46814024D01*
X52226930Y-46829930D01*
X52211024Y-46844346D01*
X52193781Y-46857134D01*
X52175368Y-46868170D01*
X52155962Y-46877349D01*
X52135750Y-46884581D01*
X52114926Y-46889797D01*
X52093691Y-46892947D01*
X52072250Y-46894000D01*
X51559750Y-46894000D01*
X51538309Y-46892947D01*
X51517074Y-46889797D01*
X51496250Y-46884581D01*
X51476038Y-46877349D01*
X51456632Y-46868170D01*
X51438219Y-46857134D01*
X51420976Y-46844346D01*
X51405070Y-46829930D01*
X51390654Y-46814024D01*
X51377866Y-46796781D01*
X51366830Y-46778368D01*
X51357651Y-46758962D01*
X51350419Y-46738750D01*
X51345203Y-46717926D01*
X51342053Y-46696691D01*
X51341000Y-46675250D01*
X51341000Y-46237750D01*
X51342053Y-46216309D01*
X51345203Y-46195074D01*
X51350419Y-46174250D01*
X51357651Y-46154038D01*
X51366830Y-46134632D01*
X51377866Y-46116219D01*
X51390654Y-46098976D01*
X51405070Y-46083070D01*
X51420976Y-46068654D01*
X51438219Y-46055866D01*
X51456632Y-46044830D01*
X51476038Y-46035651D01*
X51496250Y-46028419D01*
X51517074Y-46023203D01*
X51538309Y-46020053D01*
X51559750Y-46019000D01*
X52072250Y-46019000D01*
X52093691Y-46020053D01*
X52093691Y-46020053D01*
G37*
D16*
X51816000Y-46456500D03*
D14*
G36*
X47521691Y-46020053D02*
G01*
X47542926Y-46023203D01*
X47563750Y-46028419D01*
X47583962Y-46035651D01*
X47603368Y-46044830D01*
X47621781Y-46055866D01*
X47639024Y-46068654D01*
X47654930Y-46083070D01*
X47669346Y-46098976D01*
X47682134Y-46116219D01*
X47693170Y-46134632D01*
X47702349Y-46154038D01*
X47709581Y-46174250D01*
X47714797Y-46195074D01*
X47717947Y-46216309D01*
X47719000Y-46237750D01*
X47719000Y-46675250D01*
X47717947Y-46696691D01*
X47714797Y-46717926D01*
X47709581Y-46738750D01*
X47702349Y-46758962D01*
X47693170Y-46778368D01*
X47682134Y-46796781D01*
X47669346Y-46814024D01*
X47654930Y-46829930D01*
X47639024Y-46844346D01*
X47621781Y-46857134D01*
X47603368Y-46868170D01*
X47583962Y-46877349D01*
X47563750Y-46884581D01*
X47542926Y-46889797D01*
X47521691Y-46892947D01*
X47500250Y-46894000D01*
X46987750Y-46894000D01*
X46966309Y-46892947D01*
X46945074Y-46889797D01*
X46924250Y-46884581D01*
X46904038Y-46877349D01*
X46884632Y-46868170D01*
X46866219Y-46857134D01*
X46848976Y-46844346D01*
X46833070Y-46829930D01*
X46818654Y-46814024D01*
X46805866Y-46796781D01*
X46794830Y-46778368D01*
X46785651Y-46758962D01*
X46778419Y-46738750D01*
X46773203Y-46717926D01*
X46770053Y-46696691D01*
X46769000Y-46675250D01*
X46769000Y-46237750D01*
X46770053Y-46216309D01*
X46773203Y-46195074D01*
X46778419Y-46174250D01*
X46785651Y-46154038D01*
X46794830Y-46134632D01*
X46805866Y-46116219D01*
X46818654Y-46098976D01*
X46833070Y-46083070D01*
X46848976Y-46068654D01*
X46866219Y-46055866D01*
X46884632Y-46044830D01*
X46904038Y-46035651D01*
X46924250Y-46028419D01*
X46945074Y-46023203D01*
X46966309Y-46020053D01*
X46987750Y-46019000D01*
X47500250Y-46019000D01*
X47521691Y-46020053D01*
X47521691Y-46020053D01*
G37*
D16*
X47244000Y-46456500D03*
D14*
G36*
X47521691Y-47595053D02*
G01*
X47542926Y-47598203D01*
X47563750Y-47603419D01*
X47583962Y-47610651D01*
X47603368Y-47619830D01*
X47621781Y-47630866D01*
X47639024Y-47643654D01*
X47654930Y-47658070D01*
X47669346Y-47673976D01*
X47682134Y-47691219D01*
X47693170Y-47709632D01*
X47702349Y-47729038D01*
X47709581Y-47749250D01*
X47714797Y-47770074D01*
X47717947Y-47791309D01*
X47719000Y-47812750D01*
X47719000Y-48250250D01*
X47717947Y-48271691D01*
X47714797Y-48292926D01*
X47709581Y-48313750D01*
X47702349Y-48333962D01*
X47693170Y-48353368D01*
X47682134Y-48371781D01*
X47669346Y-48389024D01*
X47654930Y-48404930D01*
X47639024Y-48419346D01*
X47621781Y-48432134D01*
X47603368Y-48443170D01*
X47583962Y-48452349D01*
X47563750Y-48459581D01*
X47542926Y-48464797D01*
X47521691Y-48467947D01*
X47500250Y-48469000D01*
X46987750Y-48469000D01*
X46966309Y-48467947D01*
X46945074Y-48464797D01*
X46924250Y-48459581D01*
X46904038Y-48452349D01*
X46884632Y-48443170D01*
X46866219Y-48432134D01*
X46848976Y-48419346D01*
X46833070Y-48404930D01*
X46818654Y-48389024D01*
X46805866Y-48371781D01*
X46794830Y-48353368D01*
X46785651Y-48333962D01*
X46778419Y-48313750D01*
X46773203Y-48292926D01*
X46770053Y-48271691D01*
X46769000Y-48250250D01*
X46769000Y-47812750D01*
X46770053Y-47791309D01*
X46773203Y-47770074D01*
X46778419Y-47749250D01*
X46785651Y-47729038D01*
X46794830Y-47709632D01*
X46805866Y-47691219D01*
X46818654Y-47673976D01*
X46833070Y-47658070D01*
X46848976Y-47643654D01*
X46866219Y-47630866D01*
X46884632Y-47619830D01*
X46904038Y-47610651D01*
X46924250Y-47603419D01*
X46945074Y-47598203D01*
X46966309Y-47595053D01*
X46987750Y-47594000D01*
X47500250Y-47594000D01*
X47521691Y-47595053D01*
X47521691Y-47595053D01*
G37*
D16*
X47244000Y-48031500D03*
D18*
X40320000Y-46244000D03*
X38420000Y-46244000D03*
X39370000Y-48244000D03*
X49530000Y-48244000D03*
X48580000Y-46244000D03*
X50480000Y-46244000D03*
D31*
X58981000Y-34024000D03*
X58981000Y-33524000D03*
X58981000Y-33024000D03*
X58981000Y-32524000D03*
X56081000Y-32524000D03*
X56081000Y-33024000D03*
X56081000Y-33524000D03*
X56081000Y-34024000D03*
D32*
X57856000Y-33649000D03*
X57856000Y-32899000D03*
X57206000Y-33649000D03*
X57206000Y-32899000D03*
M02*
